<?xml version="1.0" standalone="no"?>
<!DOCTYPE svg PUBLIC "-//W3C//DTD SVG 1.1//EN" "http://www.w3.org/Graphics/SVG/1.1/DTD/svg11.dtd" >
<svg xmlns="http://www.w3.org/2000/svg">
<metadata></metadata>
<defs>
<font id="edpensookbold" horiz-adv-x="0" >
<font-face units-per-em="2048" ascent="1638" descent="-410" />
<missing-glyph horiz-adv-x="716" />
<glyph unicode="&#x3b;&#x3b;For&#x20;Education&#x20;Used&#x20;Only&#x3b;&#x3b;" horiz-adv-x="1628" d="M102 717q0 150 57.5 283t156 231t231.5 155.5t284 57.5q150 0 282 -57.5t230.5 -155.5t155.5 -231.5t57 -282.5q0 -152 -57 -284t-155.5 -230.5t-230.5 -155.5t-282 -57q-152 0 -284.5 57t-231 155.5t-156 230.5t-57.5 284zM225 717q0 -125 47 -235.5t130 -192.5 t193 -130t236 -48q125 0 235 48t192.5 130t131 192.5t48.5 235.5t-48.5 235.5t-131 192.5t-192.5 130t-235 48q-127 0 -236.5 -48t-192.5 -130t-130 -192.5t-47 -235.5zM401 594v250q0 82 37 154.5t98.5 126t139.5 85t162 31.5q59 0 119.5 -16.5t112.5 -47t94 -73.5t67 -96 q12 -29 6 -44.5t-31 -29.5l-35 -23q-23 -12 -45 -4t-32 29q-35 63 -105.5 106t-150.5 43q-53 0 -104.5 -19t-91.5 -52t-63.5 -77t-23.5 -93v-250q0 -49 23.5 -93t63.5 -77t91 -52.5t105 -19.5q86 0 152 48t95 124q20 55 72 37l37 -14q25 -10 38 -24.5t-1 -51.5 q-27 -59 -66 -109.5t-89 -87t-110.5 -57t-127.5 -20.5q-84 0 -162 31.5t-139.5 85t-98.5 126t-37 154.5z" />
<glyph unicode="&#x3b;&#x3b;Registered&#x3b;&#x3b;" horiz-adv-x="1628" d="M102 717q0 150 57.5 283t156 231t231.5 155.5t284 57.5q150 0 282 -57.5t230.5 -155.5t155.5 -231.5t57 -282.5q0 -152 -57 -284t-155.5 -230.5t-230.5 -155.5t-282 -57q-152 0 -284.5 57t-231 155.5t-156 230.5t-57.5 284zM225 717q0 -125 47 -235.5t130 -192.5 t193 -130t236 -48q125 0 235 48t192.5 130t131 192.5t48.5 235.5t-48.5 235.5t-131 192.5t-192.5 130t-235 48q-127 0 -236.5 -48t-192.5 -130t-130 -192.5t-47 -235.5zM471 274v891q0 27 16.5 43.5t42.5 16.5h422q68 0 128.5 -25.5t105.5 -71t70.5 -105.5t25.5 -128 q0 -59 -20.5 -112.5t-55.5 -96.5t-83 -72.5t-103 -42.5l176 -276q23 -35 6.5 -56.5t-51.5 -21.5h-59q-33 0 -50 25l-204 323h-211v-291q0 -57 -58 -57h-39q-27 0 -43 15.5t-16 41.5zM627 723h325q72 0 123 49t51 123q0 72 -51 123t-123 51h-325v-346z" />
<glyph unicode="&#x3b;&#x3b;Multiply&#x3b;&#x3b;" horiz-adv-x="792" d="M116.5 746q0.5 26 22.5 45l21 18q18 23 41.5 22.5t46.5 -22.5l174 -172l180 182q18 16 39 16.5t37 -16.5l37 -37q33 -39 0 -75l-183 -183l175 -172q23 -20 21.5 -44.5t-21.5 -43.5l-21 -20q-18 -23 -44 -22t-44 22l-174 172l-180 -183q-16 -14 -37 -15t-39 15l-37 37 q-35 41 0 76l182 182l-174 172q-23 20 -22.5 46z" />
<glyph unicode="&#x3b;&#x3b;Divide&#x3b;&#x3b;" horiz-adv-x="999" d="M133 506v43q0 57 57 57h660q57 0 57 -57v-43q0 -57 -57 -57h-660q-57 0 -57 57zM408 285q0 41 29.5 70.5t70.5 29.5q43 0 72.5 -29.5t29.5 -70.5t-29.5 -71t-72.5 -30q-41 0 -70.5 30t-29.5 71zM408 770q0 43 29.5 70.5t70.5 27.5q43 0 72.5 -27.5t29.5 -70.5 q0 -47 -29.5 -74.5t-72.5 -27.5q-41 0 -70.5 27.5t-29.5 74.5z" />
<glyph unicode="&#x2018;&#x2018;" horiz-adv-x="516" d="M76 985l84 303q12 49 59 49h29q29 0 46 -16t11 -41l-84 -301q-12 -49 -59 -49h-31q-29 0 -44 14t-11 41zM254 985l84 303q12 49 59 49h29q29 0 46 -16t11 -41l-84 -301q-12 -49 -59 -49h-31q-29 0 -44 14t-11 41z" />
<glyph unicode="&#x2019;&#x2019;" horiz-adv-x="546" d="M59 985l84 303q12 49 60 49h28q29 0 46.5 -16t11.5 -41l-84 -301q-12 -49 -60 -49h-30q-29 0 -44.5 14t-11.5 41zM238 985l84 303q12 49 59 49h29q29 0 46 -16t11 -41l-84 -301q-12 -49 -59 -49h-31q-29 0 -44.5 14t-10.5 41z" />
<glyph unicode="&#x3b;&#x3b;Trademark&#x3b;&#x3b;" horiz-adv-x="1128" d="M72 1331v45q0 57 57 58h485q31 0 52 -33q20 -35 31.5 -53.5t21.5 -34t21.5 -33.5t31.5 -51l107 176q16 29 51 29h59q57 0 58 -58v-336q0 -57 -58 -57h-39q-27 0 -43 15.5t-16 41.5v101l-78 -127q-8 -12 -16.5 -18.5t-24.5 -6.5q-12 0 -22.5 4t-20.5 21l-80 131v-105 q0 -57 -57 -57h-43q-27 0 -43.5 15.5t-16.5 41.5v232h-96v-232q0 -57 -57 -57h-39q-27 0 -43 15.5t-16 41.5v232h-109q-27 0 -42 16.5t-15 42.5z" />
<glyph unicode="&#xe24;&#xe32;" horiz-adv-x="1511" d="M90 745q29 156 145.5 227.5t288.5 71.5q92 0 170 -27.5t131 -80.5q47 51 113 79.5t143 28.5q72 0 133.5 -23.5t107.5 -67.5t71.5 -104.5t25.5 -133.5v-1004q0 -27 -15 -43t-42 -16h-39q-27 0 -43 16.5t-16 42.5v1004q0 78 -51.5 127t-131.5 49q-61 0 -105 -28.5 t-67 -80.5l-4 -6q6 -31 6 -61v-1004q0 -27 -15 -43t-42 -16h-39q-27 0 -43 16.5t-16 42.5v1004q0 45 -18.5 77.5t-50.5 54t-74 33t-89 11.5q-96 0 -169.5 -28.5t-94.5 -94.5q16 -18 23.5 -45t7.5 -61v-488q0 -18 20 -18h19q27 0 43 -16.5t16 -43.5v-39q0 -27 -16.5 -42 t-42.5 -15h-19q-94 0 -134 41t-40 133v514q0 8 -7 27.5t-40 29.5z" />
<glyph unicode="&#xe26;&#xe32;" horiz-adv-x="1495" d="M31 57v39q0 27 15 43.5t42 16.5h21q18 0 18 18v514q0 8 -6 27.5t-39 29.5q29 156 145.5 227.5t288.5 71.5q90 0 167 -25.5t130 -78.5q47 49 110.5 76.5t141.5 27.5q72 0 133.5 -23.5t107.5 -67.5t71.5 -104.5t25.5 -133.5v-1004q0 -27 -15.5 -43t-41.5 -16h-39 q-27 0 -43.5 16.5t-16.5 42.5v1004q0 78 -51 127t-131 49q-59 0 -103 -27.5t-67 -75.5q8 -33 8 -73v-1004q0 -27 -16.5 -43t-42.5 -16h-39q-27 0 -42 16.5t-15 42.5v1004q0 45 -18.5 77.5t-50.5 54t-74 33t-89 11.5q-96 0 -170 -28.5t-94 -94.5q16 -18 23.5 -45t7.5 -61 v-488q0 -92 -41 -133t-133 -41h-21q-57 0 -57 57z" />
<glyph />
<glyph />
<glyph unicode=" "  horiz-adv-x="716" />
<glyph unicode="&#x09;" horiz-adv-x="716" />
<glyph unicode="&#xa0;" horiz-adv-x="716" />
<glyph unicode="!" horiz-adv-x="425" d="M102 80q0 47 36 84t85 37q47 0 84 -37t37 -84q0 -49 -37 -85t-84 -36q-49 0 -85 36t-36 85zM145 309v1067q0 27 16.5 42.5t43.5 15.5h39q57 0 57 -58v-1067q0 -57 -57 -57h-39q-27 0 -43.5 15.5t-16.5 41.5z" />
<glyph unicode="&#x22;" horiz-adv-x="493" d="M72 950v426q0 57 57 58h29q27 0 43 -15.5t16 -42.5v-426q0 -29 -16.5 -44t-42.5 -15h-29q-57 0 -57 59zM287 950v426q0 27 16 42.5t43 15.5h29q57 0 57 -58v-426q0 -59 -57 -59h-29q-27 0 -43 15.5t-16 43.5z" />
<glyph unicode="#" horiz-adv-x="1427" d="M125 434l6 43q4 23 20.5 37t41.5 14h169l27.5 165l28.5 171h-160q-27 0 -43 17.5t-12 46.5l8 43q6 51 59 51h170q14 92 29.5 180t30.5 178q4 25 20.5 39.5t40.5 14.5h39q27 0 40 -20.5t13 -43.5q-14 -94 -27.5 -173t-27.5 -175h295q12 92 28.5 180t28.5 178 q4 25 20.5 39.5t41.5 14.5h39q27 0 41 -20.5t14 -43.5q-16 -94 -28.5 -173t-28.5 -175h239q29 0 44.5 -17.5t10.5 -46.5l-8 -43q-10 -51 -59 -51h-250l-27.5 -165t-27.5 -171h239q27 0 40.5 -20.5t13.5 -42.5l-7 -43q-4 -23 -21 -37t-40 -14h-248q-10 -78 -24.5 -159 t-24.5 -159q-4 -25 -22.5 -39t-40.5 -14h-39q-29 0 -43.5 17.5t-10.5 45.5l50 308h-295q-12 -78 -25.5 -159l-26.5 -159q-10 -53 -61 -53h-39q-29 0 -44 17.5t-11 45.5l49 308h-160q-29 0 -44 17.5t-11 45.5zM520 528h295q12 84 26.5 165t26.5 171h-293z" />
<glyph unicode="$" horiz-adv-x="1060" d="M133 975q0 76 25.5 139.5t71.5 111.5t106.5 79.5t132.5 44.5v26q0 57 57 58h39q27 0 43.5 -15.5t16.5 -42.5v-28q119 -23 207 -105t122 -199q4 -31 -4 -42t-37 -19l-41 -16q-49 -23 -69 43q-16 68 -63.5 117t-114.5 65v-444q78 -20 141 -50t108.5 -74t70 -106.5 t24.5 -146.5q0 -80 -27 -145.5t-73 -115t-108.5 -80t-135.5 -42.5v-51q0 -27 -16.5 -43.5t-43.5 -16.5h-39q-27 0 -42 16.5t-15 43.5v53q-53 12 -102.5 39.5t-91.5 65.5t-73.5 84t-47.5 95q-18 53 39 70l53 16q39 12 57 -38q20 -66 60 -110t106 -62v477q-68 18 -128 44.5 t-106.5 66.5t-74 98.5t-27.5 138.5zM289 975q0 -80 52 -123t128 -66v406q-78 -20 -129 -75.5t-51 -141.5zM625 145q84 16 136 76t52 150q0 86 -53 136t-135 81v-443z" />
<glyph unicode="%" horiz-adv-x="1042" d="M135 1178q0 39 15.5 74.5t43 63t64.5 44t78 16.5q39 0 73.5 -16.5t62.5 -44t44 -63t16 -74.5q0 -41 -16 -78t-44 -63.5t-62.5 -42t-73.5 -15.5q-84 0 -142.5 57.5t-58.5 141.5zM138 19.5q-11 19.5 5 54.5l613 1317q10 18 27.5 30.5t35.5 12.5h39q37 0 49.5 -19.5 t-4.5 -54.5l-612 -1319q-25 -41 -64 -41h-39q-39 0 -50 19.5zM264 1178q0 -29 20.5 -49.5t49.5 -20.5t49 20.5t20 49.5t-20.5 49t-48.5 20q-29 0 -49.5 -20.5t-20.5 -48.5zM553 256q0 39 15.5 75t43 63.5t64.5 44t78 16.5q39 0 73.5 -16.5t62.5 -44t44 -63.5t16 -75 q0 -41 -16 -78t-44 -63.5t-62.5 -42t-73.5 -15.5q-84 0 -142.5 57.5t-58.5 141.5zM682 256q0 -29 20.5 -49.5t49.5 -20.5t49 20.5t20 49.5t-20.5 49.5t-48.5 20.5q-29 0 -49.5 -20.5t-20.5 -49.5z" />
<glyph unicode="&#x26;" horiz-adv-x="1179" d="M113 465q0 92 19.5 161.5t53 122t75.5 92.5t89 72q-35 45 -70.5 114t-35.5 165q0 49 18.5 96t53 84t81.5 58.5t107 21.5q57 0 104 -21.5t81 -56.5t51.5 -78t17.5 -88q0 -63 -16.5 -113.5t-44 -91t-63.5 -73.5t-77 -62q6 -4 23.5 -25.5t42 -54t53.5 -72.5t57 -83 q68 -98 150 -221q2 14 3 27.5t1 25.5q0 57 59 57h37q27 0 43 -15t16 -42q0 -115 -51 -217q29 -41 54.5 -84t54.5 -84q20 -35 8 -57.5t-49 -22.5h-58q-37 0 -59 35l-53 80q-63 -55 -143 -90t-168 -35q-96 0 -181.5 38t-148 103.5t-99 151.5t-36.5 182zM266 465 q0 -63 24.5 -121.5t67.5 -102.5t100 -70t120 -26q82 0 143 28t96 73l-375 538q-35 -25 -66.5 -54.5t-56 -67t-39 -86t-14.5 -111.5zM399 1192q0 -51 26 -100.5t54 -92.5q53 39 87 82t36 113q0 41 -25.5 71.5t-72.5 30.5t-76 -31.5t-29 -72.5z" />
<glyph unicode="'" horiz-adv-x="268" d="M61 950v426q0 27 16.5 42.5t43.5 15.5h29q57 0 57 -58v-426q0 -59 -57 -59h-29q-27 0 -43.5 15.5t-16.5 43.5z" />
<glyph unicode="(" horiz-adv-x="485" d="M129 676q0 195 32.5 383.5t98.5 370.5q16 45 62 45h45q35 0 48 -19.5t3 -52.5q-66 -178 -100.5 -360.5t-34.5 -366.5q0 -182 38.5 -364.5t98.5 -364.5q20 -70 -51 -70h-45q-45 0 -62 45q-66 184 -99.5 372.5t-33.5 381.5z" />
<glyph unicode=")" horiz-adv-x="489" d="M106 -53q59 182 98.5 364.5t39.5 364.5q0 184 -35 366.5t-100 360.5q-10 33 3 52.5t48 19.5h45q45 0 61 -45q66 -182 98.5 -371t32.5 -383q0 -193 -33.5 -381.5t-99.5 -372.5q-16 -45 -61 -45h-45q-72 0 -52 70z" />
<glyph unicode="*" horiz-adv-x="712" d="M108 1211.5q-10 21.5 1 48.5l12 30q8 20 27.5 28.5t41.5 -1.5l103 -37v96q0 27 16.5 42.5t42.5 15.5h29q57 0 57 -58v-96q29 10 52.5 18.5t50.5 18.5q23 10 43 -2t30 -35l9 -20q12 -27 1.5 -48.5t-32.5 -31.5l-113 -41q18 -25 37 -47.5t39 -44.5q18 -18 15 -42t-21 -42 l-17 -17q-20 -25 -44.5 -19.5t-41.5 23.5l-79 99l-82 -99q-37 -37 -84 -2l-19 15q-18 16 -21 39.5t15 41.5l78 93l-113 43q-23 10 -33 31.5z" />
<glyph unicode="+" horiz-adv-x="960" d="M113 506v43q0 27 16 42t43 15h252v250q0 57 57 57h39q57 0 58 -57v-250h251q27 0 43.5 -15.5t16.5 -41.5v-43q0 -27 -16.5 -42t-43.5 -15h-251v-252q0 -57 -58 -58h-39q-57 0 -57 58v252h-252q-27 0 -43 15t-16 42z" />
<glyph unicode="," horiz-adv-x="360" d="M74 -211l47 348q4 23 21.5 38t41.5 15h29q29 0 43 -18t10 -47l-47 -348q-4 -23 -21.5 -38t-41.5 -15h-29q-29 0 -43 18t-10 47z" />
<glyph unicode="-" horiz-adv-x="999" d="M133 506v43q0 57 57 57h660q57 0 57 -57v-43q0 -57 -57 -57h-660q-57 0 -57 57z" />
<glyph unicode="." horiz-adv-x="333" d="M74 90q0 39 28.5 65.5t63.5 26.5q41 0 66.5 -26.5t25.5 -65.5q0 -35 -25.5 -64.5t-66.5 -29.5q-35 0 -63.5 29.5t-28.5 64.5z" />
<glyph unicode="/" horiz-adv-x="708" d="M66 -53l477 1480q8 23 25.5 35.5t37.5 12.5h39q33 0 46.5 -19.5t2.5 -50.5l-477 -1481q-16 -47 -63 -47h-39q-33 0 -46.5 19.5t-2.5 50.5z" />
<glyph unicode="0" horiz-adv-x="1105" d="M127 584v266q0 117 16.5 225.5t64.5 192.5t135 134t228 50t228.5 -50t136.5 -134t65.5 -192.5t16.5 -225.5v-266q0 -117 -16.5 -225.5t-65.5 -192.5t-136.5 -134t-228.5 -50t-228 50t-135 134t-64.5 192.5t-16.5 225.5zM281 584q0 -88 11 -169t43 -143.5t88 -99.5 t148 -37t149.5 37t88.5 99.5t42 143.5t11 169v266q0 88 -11 169t-42 143.5t-88 99t-150 36.5q-92 0 -148 -36.5t-88 -99t-43 -143.5t-11 -169v-266z" />
<glyph unicode="1" horiz-adv-x="514" d="M102 1221v28q0 27 15.5 43.5t44.5 16.5q41 0 73.5 13t32.5 54q0 57 58 58h39q57 0 57 -58v-1319q0 -57 -57 -57h-39q-57 0 -58 57v1106h-106q-59 0 -60 58z" />
<glyph unicode="2" horiz-adv-x="1138" d="M133 59q0 119 39 208t99.5 157t135 120t146.5 99q59 37 116.5 76t102.5 83t72.5 97t27.5 119v29q0 49 -23.5 93t-62 76.5t-90 52t-104.5 19.5q-80 0 -150.5 -43t-107.5 -106q-12 -23 -32.5 -32t-45.5 7l-37 21q-23 14 -28 30.5t8 44.5q23 53 64.5 96.5t95 74t113.5 47 t120 16.5q82 0 160.5 -32t140 -85t98.5 -126t37 -154v-29q0 -98 -32.5 -173t-88 -133.5t-125 -106.5t-143.5 -93q-59 -37 -115.5 -73t-102.5 -78t-78 -92t-42 -113h688q27 0 42.5 -16.5t15.5 -43.5v-39q0 -57 -58 -57h-799q-57 0 -57 59z" />
<glyph unicode="3" horiz-adv-x="1052" d="M127 266q-14 53 39 70l37 12q25 8 44 -4t27 -35q29 -80 97.5 -122t154.5 -42q53 0 105.5 17.5t93.5 52.5t65.5 87t24.5 124q0 45 -21.5 92t-62.5 86t-104.5 65.5t-145.5 28.5h-14q-57 0 -57 58v39q0 53 55 57q61 2 123.5 11t113 34t83 66t32.5 108q0 45 -19.5 85 t-54 69.5t-83 46t-105.5 16.5q-94 0 -161.5 -43t-102.5 -106q-10 -23 -32.5 -32t-45.5 7l-37 21q-23 14 -29 30.5t9 44.5q23 53 65.5 96.5t96 74t115 47t122.5 16.5q80 0 154.5 -24.5t133 -73t93.5 -118t35 -157.5q0 -121 -54.5 -194.5t-138.5 -110.5q92 -59 142.5 -151.5 t50.5 -188.5q0 -111 -38 -193.5t-101.5 -136t-143.5 -80t-162 -26.5q-68 0 -132 20.5t-118.5 57t-93.5 87t-55 111.5z" />
<glyph unicode="4" horiz-adv-x="993" d="M102 348v53q0 8 2 17.5t13 19.5q147 242 293.5 480.5t294.5 480.5q10 14 22 24.5t33 10.5h41q57 0 57 -58v-925h78q57 0 57 -58v-45q0 -57 -57 -57h-78v-234q0 -57 -57 -57h-39q-27 0 -43.5 15.5t-16.5 41.5v234h-540q-59 0 -60 57zM299 451h403v653 q-35 -59 -71.5 -118.5t-73.5 -119.5q-35 -57 -65.5 -105t-60.5 -96.5t-61.5 -99.5t-70.5 -114z" />
<glyph unicode="5" horiz-adv-x="1085" d="M102 770v23l21 585q0 55 57 56h727q57 0 58 -58v-45q0 -27 -15.5 -43t-42.5 -16h-635q0 -31 -1 -52.5t-1 -42t-1 -45t-1 -61.5q59 47 131 71.5t150 24.5q82 0 162 -31.5t143.5 -85t101 -126t37.5 -154.5v-383q0 -80 -37.5 -152.5t-100 -127t-142.5 -86t-166 -31.5 q-61 0 -126 14t-123 43t-106.5 72t-72.5 100q-14 29 -8 44.5t28 29.5l37 22q23 14 44.5 6t33.5 -30q18 -31 49 -57.5t70 -46t81 -31t83 -11.5q57 0 111 19.5t97 52.5t69 77t26 93v383q0 51 -26 95t-66.5 77t-93 52.5t-105.5 19.5q-51 0 -101.5 -17.5t-90.5 -48t-66.5 -71.5 t-32.5 -86v-21q0 -27 -16.5 -42t-42.5 -15h-37q-59 0 -60 57z" />
<glyph unicode="6" horiz-adv-x="1105" d="M123 387v660q0 82 39 154.5t101.5 125.5t142 85t161.5 32q66 0 128.5 -14.5t115.5 -42t96 -69.5t70 -95q14 -29 8 -45.5t-31 -30.5l-32 -19q-25 -16 -47.5 -7t-32.5 32q-31 66 -104.5 100.5t-170.5 34.5q-53 0 -105 -19.5t-93 -52t-65.5 -76.5t-24.5 -93v-76 q59 49 133.5 76.5t154.5 27.5q82 0 163 -31.5t143.5 -85t101.5 -126t39 -154.5v-291q0 -82 -39 -154.5t-101.5 -126t-143.5 -85t-163 -31.5t-161.5 31.5t-142 85t-101.5 126t-39 154.5zM279 387q0 -49 24.5 -93t65.5 -77t93 -52.5t105 -19.5t105.5 19.5t93.5 52.5t66.5 77 t25.5 93v291q0 49 -25.5 93t-66.5 77t-93.5 52.5t-105.5 19.5t-104 -19.5t-92 -51.5t-66.5 -73t-25.5 -86v-303z" />
<glyph unicode="7" horiz-adv-x="1005" d="M92 1331v45q0 57 60 58h753q27 0 43.5 -15.5t16.5 -42.5v-53q0 -20 -17 -39q-123 -131 -209 -274.5t-138 -298t-75.5 -318.5t-23.5 -336q0 -27 -16.5 -42t-43.5 -15h-39q-57 0 -57 57q0 147 19.5 308t65.5 319t121 308.5t187 279.5h-587q-29 0 -44.5 16.5t-15.5 42.5z " />
<glyph unicode="8" horiz-adv-x="1105" d="M113 436q0 111 54 208t146 157q-141 104 -141 284q0 76 26.5 142.5t77 117t124 79t167.5 28.5t169 -28.5t125 -79t77 -117t27 -142.5q0 -180 -142 -284q92 -59 146.5 -156.5t54.5 -208.5q0 -86 -37 -168t-99.5 -145.5t-145.5 -102t-175 -38.5t-175 38.5t-144.5 102 t-98 145.5t-36.5 168zM268 436q0 -57 24.5 -111.5t65.5 -96.5t95.5 -67.5t113.5 -25.5q61 0 115.5 25.5t95.5 67.5t65.5 96.5t24.5 111.5q0 55 -24.5 106.5t-65.5 90.5t-95 61.5t-116 22.5q-63 0 -117.5 -23.5t-94.5 -61.5t-63.5 -89.5t-23.5 -106.5zM326 1085 q0 -86 61.5 -149.5t179.5 -63.5q121 0 182.5 63.5t61.5 149.5q0 88 -63.5 150.5t-180.5 62.5q-115 0 -178 -62.5t-63 -150.5z" />
<glyph unicode="9" horiz-adv-x="1095" d="M113 756v291q0 82 38.5 154.5t101 125.5t142.5 85t164 32q82 0 162 -32t142.5 -85t101.5 -126t39 -154v-660q0 -82 -39 -154.5t-101.5 -126t-142.5 -85t-162 -31.5q-135 0 -245.5 56t-163.5 163q-14 29 -8.5 45t28.5 31l35 20q25 16 47 7t33 -31q31 -66 104.5 -101 t169.5 -35q53 0 105.5 19.5t93.5 52.5t65.5 77t24.5 93v74q-59 -47 -135 -75t-154 -28q-84 0 -164 32t-142.5 85t-101 126t-38.5 155zM268 756q0 -49 25.5 -93.5t66.5 -77t93.5 -52t105.5 -19.5q51 0 103.5 18.5t93.5 50t66.5 72.5t25.5 88v304q0 49 -24.5 93t-65.5 76.5 t-93.5 52t-105.5 19.5t-105.5 -19.5t-93.5 -52t-66.5 -76.5t-25.5 -93v-291z" />
<glyph unicode=":" horiz-adv-x="385" d="M113 88q0 39 26.5 66.5t65.5 27.5t66.5 -27.5t27.5 -66.5t-27.5 -65.5t-66.5 -26.5t-65.5 26.5t-26.5 65.5zM113 817q0 39 26.5 66.5t65.5 27.5t66.5 -27.5t27.5 -66.5t-27.5 -65.5t-66.5 -26.5t-65.5 26.5t-26.5 65.5z" />
<glyph unicode=";" horiz-adv-x="380" d="M74 -211l47 348q4 23 21.5 38t41.5 15h29q29 0 43 -18t10 -47l-47 -348q-4 -23 -21.5 -38t-41.5 -15h-29q-29 0 -43 18t-10 47zM109 817q0 39 26.5 66.5t65.5 27.5t66.5 -27.5t27.5 -66.5t-27.5 -65.5t-66.5 -26.5t-65.5 26.5t-26.5 65.5z" />
<glyph unicode="&#x3c;" horiz-adv-x="980" d="M113 549v43q0 37 30 53l670 313q31 16 53.5 2t22.5 -47v-53q0 -16 -6 -28.5t-27 -22.5l-506 -238q123 -59 253 -118.5t253 -118.5q33 -16 33 -51v-52q0 -35 -22.5 -49t-53.5 2l-668 312q-33 14 -32 53z" />
<glyph unicode="=" horiz-adv-x="999" d="M133 356v41q0 59 57 60h660q57 0 57 -60v-41q0 -27 -15 -43t-42 -16h-660q-27 0 -42 16.5t-15 42.5zM133 612v43q0 57 57 58h660q57 0 57 -58v-43q0 -57 -57 -57h-660q-57 0 -57 57z" />
<glyph unicode="&#x3e;" horiz-adv-x="980" d="M113 231v52q0 35 30 51l508 237q-123 59 -254 120t-254 118q-18 10 -24 22.5t-6 28.5v53q0 35 21.5 48.5t53.5 -3.5l668 -313q33 -16 33 -53v-43q0 -39 -35 -53l-668 -312q-35 -16 -54 -1.5t-19 48.5z" />
<glyph unicode="?" horiz-adv-x="940" d="M86 1169.5q-6 16.5 6 44.5q25 55 65 98.5t91 73t109.5 45t119.5 15.5q104 0 176 -27.5t115 -74t61.5 -105.5t18.5 -123q0 -61 -17.5 -110.5t-44 -88t-60.5 -70.5t-67 -61q-45 -39 -80.5 -77.5t-35.5 -98.5v-280q0 -27 -16.5 -43.5t-43.5 -16.5h-39q-27 0 -42 16.5 t-15 43.5v280q0 55 14.5 98.5t39 77t55 61t63.5 56.5q25 20 49.5 42t43 46.5t30.5 55t12 69.5q0 35 -10 66.5t-35.5 56.5t-67.5 39t-104 14q-80 0 -146.5 -43t-103.5 -106q-10 -23 -31.5 -32t-43.5 7l-37 21q-23 14 -29 30.5zM340 80q0 -49 36 -85t87 -36q47 0 84 36t37 85 q0 47 -37 84t-84 37q-51 0 -87 -37t-36 -84z" />
<glyph unicode="@" horiz-adv-x="1349" d="M113 496q0 119 45 225t122.5 187t182 128t223.5 47q127 0 233.5 -42t184.5 -116.5t121 -178t43 -226.5q0 -86 -23.5 -153.5t-62.5 -114.5t-91.5 -71.5t-109.5 -24.5q-53 0 -90 26.5t-57 69.5q-41 -41 -94.5 -66.5t-112.5 -29.5q-63 -4 -122 12t-103 52t-69.5 91.5 t-25.5 126.5q0 70 24.5 142.5t71 133t112 99.5t149.5 39q117 0 180 -45q20 39 63 29q8 -2 16.5 -4.5t18.5 -6.5q29 -10 41 -25.5t2 -45.5q-16 -66 -26.5 -140.5t-10.5 -148.5v-43t4 -58.5t12.5 -51t24.5 -21.5q31 0 55.5 19.5t42 51t26.5 72.5t9 86q0 94 -32.5 171 t-91 132.5t-138.5 85t-174 29.5q-88 0 -166 -36t-136 -97.5t-93 -141t-35 -167.5q0 -86 35 -163t93 -133.5t136 -89t166 -32.5q53 0 104.5 10t92.5 33q23 12 40 14t35 -29l25 -36q16 -20 14.5 -43t-34.5 -41q-57 -29 -131 -41.5t-146 -12.5q-119 0 -223.5 43t-182 119 t-122.5 179.5t-45 222.5zM463 449q0 -78 46 -111t112 -29q72 6 119.5 62.5t56.5 183.5q4 66 -23.5 104.5t-109.5 38.5q-43 0 -80 -22.5t-63.5 -57t-42 -79.5t-15.5 -90z" />
<glyph unicode="A" horiz-adv-x="1140" d="M35 70l502 1345q6 16 17 26.5t32 10.5q20 0 31.5 -10t17.5 -27l502 -1345q4 -12 4 -23q-1 -17 -11 -29q-16 -18 -47 -18h-45q-14 0 -26.5 4t-26.5 29l-190 508h-418l-191 -508q-12 -25 -25.5 -29t-25.5 -4h-47q-31 0 -47 18q-10 11 -10 29q0 10 4 23zM436 698h299 l-149 398z" />
<glyph unicode="B" horiz-adv-x="1085" d="M133 57v1319q0 57 57 58h396q72 0 135 -28t110.5 -75t75 -110.5t27.5 -135.5q0 -74 -38 -145.5t-99 -118.5q45 -23 87 -62.5t72.5 -90t49 -107.5t18.5 -115q0 -92 -35 -174t-95 -142t-141 -95t-173 -35h-390q-57 0 -57 57zM287 162h293q59 0 112 21.5t92 60.5t61.5 90 t22.5 112q0 59 -22.5 112.5t-62.5 92.5t-92 61.5t-113 22.5h-291v-573zM287 893h299q39 0 74.5 15.5t62.5 41t42 60t15 75.5q0 80 -57 133.5t-137 53.5h-299v-379z" />
<glyph unicode="C" horiz-adv-x="1034" d="M133 387v660q0 82 37 154.5t98.5 125.5t139 85t161.5 32q61 0 122 -16.5t113 -47t94 -73.5t65 -97q10 -20 10 -34q0 -6 -2 -10q-6 -15 -31 -31l-35 -21q-23 -14 -45 -5t-33 30q-37 63 -107.5 106t-150.5 43q-53 0 -104 -19.5t-90 -52t-62.5 -76.5t-23.5 -93v-660 q0 -49 23.5 -93t62.5 -77t90 -52.5t104 -19.5q86 0 152.5 48.5t95.5 123.5q15 41 48 41q11 0 24 -4l37 -14q25 -10 39 -24q7 -7 7 -18q0 -13 -9 -32q-51 -119 -153.5 -197.5t-240.5 -78.5q-84 0 -161.5 31.5t-139 85t-98.5 126t-37 154.5z" />
<glyph unicode="D" horiz-adv-x="1116" d="M133 57v1319q0 57 57 58h390q92 0 173 -35t141 -95.5t95 -142.5t35 -174v-541q0 -92 -35 -174t-95 -142t-141 -95t-173 -35h-390q-57 0 -57 57zM287 162h293q59 0 112 21.5t92 60.5t61.5 90t22.5 112v541q0 61 -22.5 112.5t-61.5 90.5t-92 60.5t-112 21.5h-293v-1110z " />
<glyph unicode="E" horiz-adv-x="1085" d="M133 57v1319q0 57 57 58h775q59 0 59 -58v-45q0 -27 -15.5 -43t-43.5 -16h-678v-379h446q57 0 58 -57v-43q0 -57 -58 -58h-446v-573h678q29 0 44 -16.5t15 -43.5v-45q0 -57 -59 -57h-775q-57 0 -57 57z" />
<glyph unicode="F" horiz-adv-x="1044" d="M133 57v1319q0 57 57 58h775q59 0 59 -58v-45q0 -27 -15.5 -43t-43.5 -16h-678v-379h428q57 0 57 -57v-43q0 -57 -57 -58h-428v-678q0 -57 -58 -57h-39q-57 0 -57 57z" />
<glyph unicode="G" horiz-adv-x="1105" d="M133 387v660q0 82 37 155.5t98.5 126.5t139 85t159.5 32q74 0 144.5 -22.5t129 -62.5t102.5 -96.5t67 -123.5q5 -14 5 -25q0 -13 -7 -22q-11 -15 -35 -23l-37 -14q-12 -4 -23 -4q-36 0 -49 43q-16 49 -47 86t-71.5 60.5t-87 35.5t-91.5 12q-53 0 -104 -19.5t-90 -52 t-62.5 -76.5t-23.5 -93v-662q0 -49 23.5 -93t62.5 -77t90 -52.5t104 -19.5q43 0 91.5 9.5t89 31t69.5 56t33 86.5v118q0 25 -17.5 41.5t-41.5 16.5q-57 0 -58 57v39q0 27 15.5 43t42.5 16q45 0 83.5 -16t67.5 -46t45.5 -69t16.5 -82v-389q0 -57 -58 -57h-39q-57 0 -57 57v29 q-49 -47 -126 -71.5t-157 -24.5q-82 0 -159.5 31.5t-139 85t-98.5 126t-37 154.5z" />
<glyph unicode="H" horiz-adv-x="1116" d="M133 57v1319q0 57 57 58h39q57 0 58 -58v-483h581v483q0 27 16.5 42.5t43.5 15.5h37q59 0 59 -58v-1319q0 -57 -59 -57h-37q-27 0 -43.5 15.5t-16.5 41.5v678h-581v-678q0 -57 -58 -57h-39q-57 0 -57 57z" />
<glyph unicode="I" horiz-adv-x="378" d="M133 57v1319q0 57 57 58h39q57 0 58 -58v-1319q0 -57 -58 -57h-39q-57 0 -57 57z" />
<glyph unicode="J" horiz-adv-x="630" d="M51 176l41 23q23 14 38 12t34 -25q31 -41 94 -41q53 0 90 36t37 89v1106q0 57 57 58h39q57 0 58 -58v-1106q0 -57 -21.5 -108t-60.5 -89t-90.5 -60.5t-108.5 -22.5q-66 0 -123 29.5t-98 76.5q-15 22 -15 41q0 22 29 39z" />
<glyph unicode="K" horiz-adv-x="1077" d="M133 57v1319q0 57 57 58h39q27 0 43.5 -15.5t16.5 -42.5v-598q117 160 233.5 313.5t233.5 313.5q10 16 23.5 22.5t27.5 6.5h76q37 0 48 -16.5t-5 -43.5l-389 -522l510 -793q9 -16 9 -28q0 -9 -4 -15q-12 -16 -48 -16h-78q-33 0 -49 29l-443 686l-145 -195v-463 q0 -27 -16.5 -42t-43.5 -15h-39q-57 0 -57 57z" />
<glyph unicode="L" horiz-adv-x="987" d="M133 57v1319q0 27 16.5 42.5t43.5 15.5h36q59 0 60 -58v-1214h600q27 0 42 -16.5t15 -43.5v-45q0 -57 -57 -57h-696q-27 0 -43.5 15.5t-16.5 41.5z" />
<glyph unicode="M" horiz-adv-x="1155" d="M133 57v1319q0 57 57 58h41q18 0 28.5 -8.5t21.5 -20.5l317 -533q80 135 160 266.5t157 266.5q20 29 52 29h39q57 0 57 -58v-1319q0 -57 -57 -57h-39q-27 0 -43.5 15.5t-16.5 41.5v1037q-66 -109 -133 -217.5t-133 -219.5q-14 -27 -43 -26q-27 0 -43 26l-266 437v-1037 q0 -27 -16.5 -42t-43.5 -15h-39q-57 0 -57 57z" />
<glyph unicode="N" horiz-adv-x="1116" d="M133 57v1319q0 57 57 58h41q18 0 26.5 -3.5t23.5 -25.5l587 -1049v1020q0 27 16.5 42.5t43.5 15.5h37q59 0 59 -58v-1319q0 -57 -59 -57h-39q-23 0 -32 7t-20 24l-587 1044v-1018q0 -57 -58 -57h-39q-57 0 -57 57z" />
<glyph unicode="O" horiz-adv-x="1114" d="M131 387v660q0 82 38 154.5t101.5 125.5t142.5 85t162 32q82 0 163 -32t143.5 -85t101.5 -126t39 -154v-660q0 -82 -39 -154.5t-101.5 -126t-143.5 -85t-163 -31.5q-84 0 -162.5 31.5t-142 85t-101.5 126t-38 154.5zM285 387q0 -49 25.5 -93t66.5 -77t93 -52.5t105 -19.5 t105.5 19.5t93.5 52.5t66.5 77t25.5 93v660q0 49 -25.5 93t-66.5 76.5t-93 52t-106 19.5q-53 0 -105 -19.5t-93 -52t-66.5 -76.5t-25.5 -93v-660z" />
<glyph unicode="P" horiz-adv-x="1075" d="M133 57v1319q0 57 57 58h390q92 0 173 -35t141 -95.5t95 -142.5t35 -174t-35 -173t-96.5 -141.5t-142 -95t-172.5 -34.5h-291v-486q0 -57 -58 -57h-39q-57 0 -57 57zM287 700h291q61 0 113 22.5t92 61.5t62.5 91.5t22.5 111.5q0 61 -22.5 112.5t-61.5 90.5t-92 60.5 t-112 21.5h-293v-572z" />
<glyph unicode="Q" horiz-adv-x="1114" d="M133 387v660q0 82 39 154.5t101.5 125.5t142.5 85t162 32t162.5 -32t143 -85t101.5 -126t39 -154v-660q0 -66 -26.5 -126t-67.5 -109q12 -4 27.5 -5.5t27.5 -1.5q57 0 57 -57v-39q0 -27 -15 -43t-42 -16q-53 0 -104.5 12t-98.5 35q-47 -23 -99 -35t-105 -12 q-82 0 -162 31.5t-142.5 85t-101.5 126t-39 154.5zM289 387q0 -49 24.5 -93t65.5 -77t93 -52.5t106 -19.5q27 0 55 7q-41 47 -66.5 109.5t-25.5 125.5q0 27 15 43t42 16h39q27 0 42 -16t15 -43q0 -47 25.5 -90t62.5 -76q35 33 60.5 76t25.5 90v660q0 49 -25.5 93t-66.5 76.5 t-93 52t-105 19.5t-105.5 -19.5t-93.5 -52t-65.5 -76.5t-24.5 -93v-660z" />
<glyph unicode="R" horiz-adv-x="1097" d="M133 57v1319q0 57 57 58h390q92 0 173 -35t141 -95.5t95 -142.5t35 -174q0 -74 -22.5 -140.5t-63.5 -121.5t-97.5 -97t-121.5 -65l328 -504q9 -16 9 -28q0 -9 -4 -15q-12 -16 -48 -16h-78q-33 0 -49 29l-330 514h-258v-486q0 -27 -16.5 -42t-43.5 -15h-39q-57 0 -57 57z M289 700h289q61 0 113 22.5t92 61.5t62.5 91.5t22.5 111.5q0 61 -22.5 112.5t-61.5 90.5t-92 60.5t-112 21.5h-291v-572z" />
<glyph unicode="S" horiz-adv-x="1064" d="M102 1044q0 94 35 169t96.5 128.5t142.5 82t173 28.5q76 0 146.5 -24.5t129 -68.5t100.5 -103.5t60 -129.5q8 -29 -3 -44t-36 -25l-37 -15q-29 -10 -48 2t-25 41q-10 47 -38 86t-66 68t-86 44t-97 15q-61 0 -113.5 -17t-92.5 -51t-62.5 -81t-22.5 -105q0 -57 25.5 -95 t67.5 -63.5t97.5 -42t116.5 -28.5q92 -20 170 -51t135.5 -80t90 -119.5t32.5 -169.5q0 -94 -34.5 -169.5t-95 -130t-141.5 -84t-173 -29.5q-76 0 -143.5 23.5t-124 65.5t-96.5 99t-60 125q-10 31 1 47t36 25l37 12q14 5 25 5q34 0 46 -44q29 -88 105 -145.5t174 -57.5 q59 0 112.5 18.5t93.5 52.5t62.5 81t22.5 106q0 57 -24.5 101.5t-66.5 77t-97.5 54t-119.5 36.5q-80 18 -156.5 43.5t-137 68.5t-98.5 107.5t-38 160.5z" />
<glyph unicode="T" horiz-adv-x="1013" d="M72 1331v45q0 57 57 58h774q27 0 43.5 -15.5t16.5 -42.5v-45q0 -27 -16.5 -43t-43.5 -16h-309v-1215q0 -57 -57 -57h-39q-27 0 -43.5 15.5t-16.5 41.5v1215h-309q-27 0 -42 16.5t-15 42.5z" />
<glyph unicode="U" horiz-adv-x="1116" d="M133 387v989q0 57 57 58h39q57 0 58 -58v-989q0 -49 25.5 -93t66.5 -77t93 -52.5t106 -19.5q53 0 105 19.5t93 52.5t66.5 77t25.5 93v989q0 27 16.5 42.5t43.5 15.5h37q59 0 59 -58v-989q0 -82 -39 -154.5t-101.5 -126t-143.5 -85t-162 -31.5q-84 0 -163 31.5t-142.5 85 t-101.5 126t-38 154.5z" />
<glyph unicode="V" horiz-adv-x="1161" d="M39 1374q-9 17 -9 30q0 30 52 30h70q14 0 26 -6.5t19 -26.5l399 -1065l401 1069q6 16 20.5 22.5t29.5 6.5h63q37 0 45 -16q4 -7 4 -17q0 -12 -6 -27l-508 -1356q-6 -16 -17.5 -26t-31.5 -10t-31.5 10t-17.5 26z" />
<glyph unicode="W" horiz-adv-x="1323" d="M35 1374q-3 12 -3 23t3 19q6 18 43 18h59q14 0 29.5 -6.5t19.5 -22.5q31 -129 57.5 -238.5t52.5 -214t52.5 -214t57.5 -238.5l215 901q4 16 15 29.5t36 13.5q23 0 35 -13.5t16 -29.5q4 -20 16.5 -69.5t27.5 -117t34.5 -146.5t38.5 -159q45 -188 98 -409l219 905 q4 16 19.5 22.5t29.5 6.5h60q37 0 43 -16q3 -8 3 -19t-3 -25l-316 -1345q-4 -16 -15 -29.5t-36 -13.5t-35 13t-14 30q-18 78 -42 173t-48.5 194.5t-47 194.5t-41 171t-29.5 125t-13 57q-20 -90 -50 -212t-61 -250t-60.5 -247.5t-49.5 -205.5q-4 -16 -15.5 -29.5t-34.5 -13.5 q-27 0 -37 13t-14 30z" />
<glyph unicode="X" horiz-adv-x="1040" d="M35 18q-4 7 -4 15q0 12 8 26l401 717q-80 147 -168 300t-168 298q-14 25 -3.5 42.5t46.5 17.5h66q33 0 49 -29l266 -473q68 123 133.5 238.5t131.5 234.5q16 29 49 29h67q37 0 48.5 -16.5t-5.5 -43.5l-336 -600l404 -715q9 -16 9 -28q0 -8 -4 -15q-11 -16 -48 -16h-68 q-33 0 -49 29l-332 589l-331 -589q-16 -29 -50 -29h-65q-37 0 -47 18z" />
<glyph unicode="Y" horiz-adv-x="1046" d="M45 1416q10 18 47 18h66q33 0 49 -29q45 -82 86 -153.5t80 -142.5t80 -142.5t86 -153.5q82 147 164.5 297t162.5 295q16 29 49 29h68q37 0 48 -16q4 -7 4 -16q0 -12 -9 -28l-410 -735v-582q0 -27 -16 -42t-43 -15h-39q-57 0 -57 57v582l-412 735q-8 15 -8 27q0 8 4 15z " />
<glyph unicode="Z" horiz-adv-x="1064" d="M102 57v45q0 8 3.5 17.5t7.5 15.5q172 291 338.5 567.5t341.5 569.5h-631q-29 0 -44.5 16.5t-15.5 42.5v45q0 57 60 58h774q57 0 57 -58v-45q0 -12 -3 -19t-7 -18l-678 -1132h631q27 0 42 -16.5t15 -43.5v-45q0 -57 -57 -57h-774q-59 0 -60 57z" />
<glyph unicode="[" horiz-adv-x="456" d="M133 -63v1480q0 27 16.5 42.5t43.5 15.5h163q27 0 43.5 -15.5t16.5 -42.5v-43q0 -27 -16.5 -43t-43.5 -16h-67v-1278h67q27 0 43.5 -16.5t16.5 -43.5v-40q0 -27 -16.5 -43.5t-43.5 -16.5h-163q-27 0 -43.5 16.5t-16.5 43.5z" />
<glyph unicode="\" horiz-adv-x="710" d="M76 1405q-10 31 3 50.5t46 19.5h39q45 0 61 -48l471 -1480q8 -31 -7 -50.5t-46 -19.5h-39q-45 0 -59 47z" />
<glyph unicode="]" horiz-adv-x="475" d="M102 -23q0 27 15.5 43.5t44.5 16.5h67v1278h-67q-29 0 -44.5 16.5t-15.5 42.5v43q0 57 60 58h164q57 0 57 -58v-1480q0 -27 -15.5 -43.5t-41.5 -16.5h-164q-29 0 -44.5 16.5t-15.5 43.5v40z" />
<glyph unicode="^" horiz-adv-x="724" d="M110.5 950.5q-14.5 20.5 2.5 55.5l186 397q10 18 23.5 24.5t29.5 6.5h45q37 0 52 -33l186 -395q16 -35 2 -55.5t-49 -20.5h-51q-18 0 -29.5 6t-22.5 25l-112 235l-111 -235q-14 -31 -49 -31h-53q-35 0 -49.5 20.5z" />
<glyph unicode="_" horiz-adv-x="911" d="M20 -68q0 27 16.5 42.5t43.5 15.5h774q57 0 57 -58v-43q0 -57 -57 -57h-774q-27 0 -43.5 15.5t-16.5 41.5v43z" />
<glyph unicode="`" horiz-adv-x="380" d="M74 1339q-4 25 11 40.5t44 15.5h29q25 0 42 -14.5t21 -37.5l66 -241q4 -25 -12.5 -40t-45.5 -15h-28q-49 0 -60 47z" />
<glyph unicode="a" horiz-adv-x="923" d="M74 319q0 162 103.5 243t273.5 91q115 8 172 15.5t57 52.5q0 86 -57.5 128t-151.5 42q-72 0 -127 -23.5t-82 -66.5q-12 -18 -26.5 -31.5t-47.5 2.5l-36 19q-29 14 -33 31.5t8 43.5q45 90 136 133t208 43q80 0 145.5 -20.5t113.5 -60t74.5 -100t26.5 -140.5v-664 q0 -27 -15 -42t-40 -15h-39q-57 0 -57 57v19q-33 -37 -100.5 -61.5t-126.5 -24.5q-78 0 -147.5 21.5t-121 62.5t-81 103.5t-29.5 141.5zM225 319q0 -88 66.5 -133t161.5 -45q94 0 160.5 56.5t66.5 148.5v197q-35 -16 -92.5 -21.5t-124.5 -9.5q-102 -4 -170 -52t-68 -141z " />
<glyph unicode="b" horiz-adv-x="993" d="M133 57v1360q0 57 57 58h39q25 0 40.5 -15.5t15.5 -42.5v-440q47 31 105.5 48t123.5 17q78 0 146.5 -23.5t121 -67.5t82 -106.5t29.5 -142.5v-370q0 -82 -29.5 -145.5t-82 -107.5t-121 -66.5t-146.5 -22.5q-131 0 -229 63q0 -23 -16.5 -38t-39.5 -15h-39q-57 0 -57 57z M285 332q0 -88 66.5 -139.5t162.5 -51.5q94 0 160.5 51.5t66.5 139.5v370q0 88 -66.5 138.5t-160.5 50.5q-92 0 -160.5 -48t-68.5 -134v-377z" />
<glyph unicode="c" horiz-adv-x="940" d="M123 332v368q0 80 29.5 143.5t82 107.5t121 67.5t146.5 23.5q117 0 211 -49t135 -141q9 -20 9 -34q0 -8 -3 -14q-8 -16 -31 -28l-35 -20q-23 -14 -44 -6t-31 30q-23 53 -81.5 82t-129.5 29q-94 0 -161 -50t-67 -141v-368q0 -88 67 -139.5t161 -51.5q78 0 128 34t70 93 q8 25 21.5 37t44.5 2q10 -4 20.5 -7t20.5 -7q25 -6 39 -22.5t0 -51.5q-41 -109 -128 -169t-216 -60q-78 0 -146.5 22.5t-121 66.5t-82 107.5t-29.5 145.5z" />
<glyph unicode="d" horiz-adv-x="985" d="M133 332v370q0 80 30 142.5t82 106.5t121.5 67.5t147.5 23.5q61 0 120.5 -18t106.5 -47v440q0 27 15.5 42.5t40.5 15.5h39q57 0 57 -58v-1360q0 -57 -57 -57h-39q-25 0 -40.5 15.5t-15.5 37.5q-98 -63 -227 -63q-78 0 -147.5 22.5t-121.5 66.5t-82 107.5t-30 145.5z M285 332q0 -88 66.5 -139.5t162.5 -51.5q94 0 160.5 51.5t66.5 139.5v377q0 43 -18 76.5t-50 57t-73 36t-86 12.5q-96 0 -162.5 -50t-66.5 -139v-370z" />
<glyph unicode="e" horiz-adv-x="985" d="M133 342v311q0 80 30 152t82 124t121.5 82.5t147.5 30.5t146.5 -30.5t121 -82.5t82 -124t29.5 -152v-84q0 -57 -57 -57h-551v-170q0 -51 19.5 -89t52 -62.5t75.5 -37t90 -12.5q78 0 119 21.5t70 48.5q20 20 36.5 21t38.5 -15l29 -27q26 -21 26 -43q0 -20 -20 -41 q-18 -18 -42.5 -38.5t-60.5 -38t-84 -29.5t-112 -12q-78 0 -148.5 22.5t-123.5 67.5t-85 111.5t-32 152.5zM285 670h454q-4 45 -22.5 86t-49 70.5t-69.5 47t-84 17.5t-85 -17.5t-70.5 -47t-50 -70.5t-23.5 -86z" />
<glyph unicode="f" horiz-adv-x="536" d="M72 930v41q0 27 15 42t40 15h20v219q0 47 18.5 88t49.5 72t72 49.5t88 18.5h94q57 0 57 -58v-41q0 -57 -57 -57h-94q-33 0 -54.5 -20.5t-21.5 -51.5v-219h131q57 0 57 -57v-41q0 -57 -57 -58h-131v-815q0 -57 -57 -57h-39q-25 0 -40.5 15.5t-15.5 41.5v815h-20 q-25 0 -40 15.5t-15 42.5z" />
<glyph unicode="g" horiz-adv-x="985" d="M133 332v370q0 80 30 142.5t82 106.5t121.5 67.5t147.5 23.5q61 0 120.5 -16t106.5 -47q4 20 18.5 32.5t37.5 12.5h39q57 0 57 -57v-975q0 -82 -29.5 -145.5t-82 -106.5t-121 -65.5t-146.5 -22.5q-129 0 -216 59.5t-128 169.5q-14 35 0 49.5t37 22.5l45 14q29 10 41 -2 t22 -37q25 -57 73 -91t126 -34q94 0 160.5 50.5t66.5 138.5v61q-47 -31 -107.5 -47t-119.5 -16q-78 0 -147.5 22.5t-121.5 66.5t-82 107.5t-30 145.5zM285 332q0 -88 66.5 -139.5t162.5 -51.5q45 0 86 12.5t73 35t50 56.5t18 74v390q0 43 -18 76.5t-50 57t-73 36t-86 12.5 q-96 0 -162.5 -50t-66.5 -139v-370z" />
<glyph unicode="h" horiz-adv-x="985" d="M133 57v1358q0 57 57 58h39q25 0 40.5 -15.5t15.5 -42.5v-438q47 29 106.5 47t122.5 18q78 0 146.5 -23.5t121 -67.5t82 -106.5t29.5 -142.5v-645q0 -57 -57 -57h-39q-25 0 -40.5 15.5t-15.5 41.5v645q0 88 -66.5 138.5t-160.5 50.5q-96 0 -162.5 -50t-66.5 -141v-643 q0 -27 -15.5 -42t-40.5 -15h-39q-57 0 -57 57z" />
<glyph unicode="i" horiz-adv-x="393" d="M113 1217q0 45 28.5 72.5t69.5 27.5q45 0 72.5 -27.5t27.5 -72.5q0 -41 -27.5 -70t-72.5 -29q-41 0 -69.5 29t-28.5 70zM135 57v910q0 57 58 57h38q25 0 40.5 -15.5t15.5 -41.5v-910q0 -27 -15.5 -42t-40.5 -15h-38q-57 0 -58 57z" />
<glyph unicode="j" horiz-adv-x="380" d="M-68 -250q0 25 15.5 41t42.5 16h94q16 0 27.5 10.5t11.5 26.5v1123q0 57 57 57h37q57 0 57 -57v-1127q0 -39 -15 -73.5t-40.5 -60t-60.5 -40t-74 -14.5h-94q-27 0 -42.5 15.5t-15.5 39.5v43zM100 1217q0 45 29 72.5t70 27.5q43 0 71.5 -27.5t28.5 -72.5q0 -41 -28.5 -70 t-71.5 -29q-41 0 -70 29t-29 70z" />
<glyph unicode="k" horiz-adv-x="913" d="M133 57v1360q0 57 57 58h39q25 0 40.5 -15.5t15.5 -42.5v-796l297 395q16 29 49 28h67q37 0 48.5 -16t-5.5 -43l-235 -321q94 -147 193.5 -302t193.5 -303q9 -16 9 -28q0 -8 -4 -15q-11 -16 -48 -16h-70q-33 0 -49 29l-323 501l-123 -161v-312q0 -27 -15.5 -42t-40.5 -15 h-39q-57 0 -57 57z" />
<glyph unicode="l" horiz-adv-x="434" d="M133 143v1274q0 57 57 58h37q57 0 58 -58v-1241q0 -10 3 -15t17 -5q27 0 42 -16.5t15 -43.5v-39q0 -57 -57 -57h-20q-70 0 -111 33t-41 110z" />
<glyph unicode="m" horiz-adv-x="1173" d="M133 57v910q0 57 57 57h39q14 0 28.5 -9t14.5 -22q61 49 136 49q121 0 200 -84q37 39 88.5 61.5t110.5 22.5q57 0 107.5 -21.5t87 -58t58 -87t21.5 -107.5v-711q0 -57 -57 -57h-37q-57 0 -57 57v711q0 51 -36 87t-87 36q-49 0 -86 -34t-37 -83v-717q0 -57 -57 -57h-39 q-25 0 -40.5 15.5t-15.5 41.5v717q0 49 -36.5 83t-87.5 34q-49 0 -86 -34t-37 -83v-717q0 -27 -15.5 -42t-40.5 -15h-39q-57 0 -57 57z" />
<glyph unicode="n" horiz-adv-x="985" d="M133 57v910q0 57 57 57h39q23 0 39.5 -14.5t16.5 -42.5q39 33 101.5 54t127.5 21q78 0 146.5 -23.5t121 -67.5t82 -106.5t29.5 -142.5v-645q0 -57 -57 -57h-39q-25 0 -40.5 15.5t-15.5 41.5v645q0 88 -66.5 138.5t-160.5 50.5q-96 0 -162.5 -50t-66.5 -141v-643 q0 -27 -15.5 -42t-40.5 -15h-39q-57 0 -57 57z" />
<glyph unicode="o" horiz-adv-x="962" d="M123 332v368q0 80 29.5 143.5t81 107.5t121 67.5t147.5 23.5t147.5 -23.5t120.5 -67.5t81 -106.5t30 -142.5v-370q0 -82 -30 -145.5t-81 -107.5t-120.5 -66.5t-147.5 -22.5t-147.5 22.5t-121 66.5t-81 107.5t-29.5 145.5zM274 332q0 -88 67 -139.5t161 -51.5t160.5 51.5 t66.5 139.5v370q0 88 -66.5 138.5t-160.5 50.5t-161 -50t-67 -141v-368z" />
<glyph unicode="p" horiz-adv-x="974" d="M133 -293v1260q0 57 57 57h39q23 0 37.5 -12.5t18.5 -32.5q47 29 105.5 46t123.5 17q78 0 146.5 -22.5t121 -65.5t82 -106.5t29.5 -145.5v-370q0 -80 -29.5 -143.5t-82 -107.5t-121 -67.5t-146.5 -23.5q-63 0 -122.5 18.5t-106.5 48.5v-350q0 -25 -15.5 -40t-40.5 -15 h-39q-27 0 -42 15.5t-15 39.5zM285 324q0 -43 18.5 -77t50 -57.5t72.5 -36t88 -12.5q94 0 160.5 51.5t66.5 139.5v370q0 88 -66.5 138.5t-160.5 50.5q-96 0 -162.5 -50t-66.5 -139v-378z" />
<glyph unicode="q" horiz-adv-x="989" d="M139 332v370q0 82 30 145.5t81 106.5t120.5 65.5t147.5 22.5q66 0 123 -17t104 -46q10 45 58 45h37q57 0 57 -57v-1260q0 -25 -15.5 -40t-41.5 -15h-37q-27 0 -42.5 15.5t-15.5 39.5v350q-47 -33 -105 -50t-122 -17q-78 0 -147.5 23.5t-120.5 67.5t-81 107.5t-30 143.5z M291 332q0 -88 66.5 -139.5t160.5 -51.5q45 0 86 12.5t73 36t50 57.5t18 77v378q0 88 -66.5 138.5t-160.5 50.5t-160.5 -50t-66.5 -139v-370z" />
<glyph unicode="r" horiz-adv-x="620" d="M133 57v910q0 57 57 57h39q20 0 37 -12.5t17 -36.5q39 31 101 49t128 18q57 0 57 -57v-41q0 -57 -57 -57q-94 0 -160.5 -49.5t-66.5 -137.5v-643q0 -27 -15.5 -42t-40.5 -15h-39q-57 0 -57 57z" />
<glyph unicode="s" horiz-adv-x="907" d="M88 729q0 82 32 140.5t85 97.5t123.5 57t148.5 18q133 0 232.5 -63.5t134.5 -183.5q8 -29 -3.5 -43.5t-35.5 -24.5l-35 -14q-29 -10 -48.5 2t-23.5 41q-16 66 -78.5 100.5t-142.5 34.5q-47 0 -90 -9.5t-75.5 -28.5t-52 -50t-19.5 -74q0 -29 20.5 -50.5t55 -36.5 t80.5 -26.5t96 -21.5q74 -16 142 -37.5t119.5 -55.5t82 -83t30.5 -121q0 -82 -30.5 -140.5t-83 -95t-121 -54t-144.5 -17.5q-72 0 -136 18.5t-114.5 54t-85 86t-47.5 115.5q-6 29 4.5 43.5t34.5 22.5l39 14q27 10 46.5 -3t25.5 -42q12 -72 76.5 -115t156.5 -43q45 0 86 9.5 t73 28t50.5 48t18.5 70.5q0 31 -20.5 54.5t-54.5 41t-80 29.5t-95 22q-76 14 -143.5 33t-119.5 48.5t-83 77.5t-31 126z" />
<glyph unicode="t" horiz-adv-x="540" d="M72 930v41q0 57 57 57h76v207q0 25 15.5 40t41.5 15h37q27 0 42 -15t15 -40v-207h76q57 0 57 -57v-41q0 -57 -57 -58h-76v-815q0 -57 -57 -57h-37q-57 0 -57 57v815h-76q-57 0 -57 58z" />
<glyph unicode="u" horiz-adv-x="972" d="M123 332v635q0 27 15.5 42t39.5 15h39q57 0 57 -57v-635q0 -88 67 -139.5t161 -51.5t160.5 51.5t66.5 141.5v633q0 57 57 57h37q57 0 58 -57v-910q0 -57 -58 -57h-37q-57 0 -57 63q-35 -31 -100.5 -52t-126.5 -21q-78 0 -147.5 23.5t-121 67.5t-81 107.5t-29.5 143.5z " />
<glyph unicode="v" horiz-adv-x="868" d="M45 1007q10 17 47 17h60q14 0 28.5 -6t20.5 -23l250 -667l249 667q6 16 20.5 22.5t29.5 6.5h53q37 0 48 -16q5 -8 5 -18q0 -11 -6 -25l-352 -949v2q-6 -16 -16.5 -25t-30.5 -9q-37 0 -48 34v-2l-354 949q-8 15 -8 26q0 9 4 16z" />
<glyph unicode="w" horiz-adv-x="1021" d="M45 965q-3 14 -3 24.5t3 18.5q6 16 43 16h59q14 0 30 -6t20 -23l139 -530l141 530q4 16 15.5 28.5t33.5 12.5q23 0 34 -12t15 -29l142 -530l139 530q4 16 19.5 22.5t29.5 6.5h60q37 0 43 -16q3 -8 3 -19t-3 -24q-59 -233 -120 -468t-120 -468q-4 -16 -15.5 -28.5 t-33.5 -12.5q-23 0 -34 12t-15 29q-29 109 -53.5 206t-44 173.5t-32 127t-14.5 62.5q-2 -12 -14 -62.5t-31.5 -127t-44 -174t-53.5 -205.5q-4 -16 -15.5 -28.5t-33.5 -12.5q-23 0 -34 12t-15 29q-59 233 -120 467.5t-120 468.5z" />
<glyph unicode="x" horiz-adv-x="819" d="M45 18q-4 7 -4 15q0 12 8 26l293 490l-250 416q-14 25 -4 42t47 17h62q33 0 49 -29l182 -301l180 301q16 29 49 29h64q37 0 48 -16.5t-5 -42.5l-250 -416l295 -490q9 -16 9 -28q0 -8 -4 -15q-11 -16 -48 -16h-61q-33 0 -50 29l-227 374l-223 -374q-16 -29 -49 -29h-64 q-37 0 -47 18z" />
<glyph unicode="y" horiz-adv-x="858" d="M47 1007q8 17 45 17h60q33 0 49 -29l250 -667l249 667q6 16 20.5 22.5t29.5 6.5h57q37 0 45 -16q4 -8 4 -17q0 -12 -6 -26l-442 -1188q-20 -53 -69.5 -89t-109.5 -36h-36q-25 0 -40.5 15.5t-15.5 39.5v43q0 25 15.5 41t40.5 16h36q10 0 20.5 7.5t14.5 17.5 q23 63 50.5 138t52.5 141l-318 854q-6 14 -6 25q0 9 4 17z" />
<glyph unicode="z" horiz-adv-x="931" d="M102 57v43q0 14 3.5 20.5t7.5 16.5l528 729h-481q-57 0 -58 58v43q0 57 58 57h645q25 0 40 -15.5t15 -41.5v-43q0 -12 -2 -20.5t-10 -18.5q-70 -96 -135.5 -186.5t-130 -177.5t-130 -177t-135.5 -186h488q25 0 40 -15.5t15 -42.5v-43q0 -27 -15.5 -42t-39.5 -15h-645 q-57 0 -58 57z" />
<glyph unicode="{" horiz-adv-x="567" d="M51 698v37q0 27 15.5 43.5t42.5 16.5q25 0 42 16t17 41v389q0 49 18.5 91t50 74t73.5 50.5t89 18.5h68q27 0 43 -15.5t16 -42.5v-43q0 -27 -16 -43t-43 -16h-68q-33 0 -55 -20.5t-22 -53.5v-389q0 -39 -15.5 -78t-46.5 -57q31 -16 46.5 -58.5t15.5 -76.5v-471 q0 -33 22.5 -53.5t54.5 -20.5h68q27 0 43 -16.5t16 -43.5v-40q0 -27 -16 -43.5t-43 -16.5h-68q-47 0 -89 18.5t-73.5 50t-50 73.5t-18.5 92v471q0 20 -16.5 36.5t-42.5 20.5q-27 0 -42.5 16.5t-15.5 42.5z" />
<glyph unicode="|" horiz-adv-x="358" d="M123 -63v1480q0 57 57 58h39q57 0 57 -58v-1480q0 -27 -15 -43.5t-42 -16.5h-39q-27 0 -42 16.5t-15 43.5z" />
<glyph unicode="}" horiz-adv-x="567" d="M41 -23q0 27 16.5 43.5t42.5 16.5h68q33 0 55.5 20.5t22.5 53.5v471q0 35 15 76.5t46 58.5q-31 18 -46 57t-15 78v389q0 33 -22.5 53.5t-55.5 20.5h-68q-27 0 -43 16.5t-16 42.5v43q0 27 16.5 42.5t42.5 15.5h68q47 0 89 -18.5t73.5 -50.5t50 -74t18.5 -91v-389 q0 -25 17.5 -41t42.5 -16q27 0 42 -16.5t15 -43.5v-37q0 -27 -15.5 -43t-41.5 -16q-27 -4 -43.5 -20.5t-16.5 -36.5v-471q0 -49 -18.5 -91.5t-50 -74t-73.5 -50t-89 -18.5h-68q-27 0 -43 16.5t-16 43.5v40z" />
<glyph unicode="~" horiz-adv-x="727" d="M105 685q-3 20 8 42q8 14 20 32.5t31.5 35t46.5 28t63 11.5q35 0 68 -16.5t61 -33.5q16 -10 36 -19t30 -9q12 0 19.5 8t15.5 22q14 23 36.5 29t45.5 -10l30 -23q27 -18 28 -36.5t-9 -40.5q-8 -14 -20.5 -33t-32 -35t-46 -27.5t-63.5 -11.5q-35 0 -70.5 17.5t-68.5 35.5 q-16 10 -31.5 17.5t-21.5 7.5q-14 0 -21.5 -8.5t-15.5 -22.5q-14 -23 -37 -29t-45 11l-31 22q-23 16 -26 36z" />
<glyph unicode="&#xa2;" horiz-adv-x="1038" d="M133 387v571q0 72 28.5 135.5t77 115t111 87t131.5 50.5v30q0 57 58 58h39q57 0 57 -58v-26q51 -6 102 -25.5t96.5 -48.5t80 -68t53.5 -84q14 -29 8 -45t-31 -30l-35 -23q-23 -12 -45 -4t-33 31q-29 51 -82 89t-114 52v-1042q66 16 113 60t69 105q20 55 72 37l37 -14 q25 -6 39 -22.5t-2 -51.5q-45 -104 -130 -179t-198 -91v-59q0 -27 -15.5 -43.5t-41.5 -16.5h-39q-27 0 -42.5 16.5t-15.5 43.5v61q-70 14 -133 50t-110.5 87t-76 115.5t-28.5 136.5zM289 387q0 -80 55 -141.5t137 -85.5v1028q-39 -12 -73.5 -36t-61.5 -53.5t-42 -65.5 t-15 -75v-571z" />
<glyph unicode="&#xa3;" horiz-adv-x="1083" d="M82 645v43q0 57 57 57h135q37 115 85.5 224.5t108.5 195.5t133 138.5t161 52.5q78 0 140.5 -39t107.5 -92q14 -20 11 -43t-24 -39l-26 -19q-23 -16 -44.5 -13t-35.5 19q-29 31 -60.5 50.5t-68.5 19.5q-51 0 -97.5 -37t-87 -100.5t-75.5 -145t-66 -172.5h363q57 0 57 -57 v-43q0 -57 -57 -57h-410q-35 -129 -54.5 -240.5t-23.5 -171.5q0 -4 1 -10t12 -6h616q27 0 42 -16.5t15 -43.5v-43q0 -57 -57 -57h-672q-59 0 -92 23.5t-33 82.5q0 25 6.5 76t18.5 117t27.5 140.5t33.5 148.5h-90q-57 0 -57 57z" />
<glyph unicode="&#xa5;" horiz-adv-x="1044" d="M117 1334.5q10 17.5 47 17.5h63q14 0 27.5 -6.5t24.5 -22.5l264 -467l260 467q16 29 49 29h68q37 0 48 -16.5t-5 -43.5l-275 -487h211q27 0 42 -16.5t15 -43.5v-43q0 -57 -57 -57h-278v-41h278q57 0 57 -57v-43q0 -27 -15 -43.5t-42 -16.5h-278v-387q0 -27 -16.5 -42 t-43.5 -15h-39q-57 0 -57 57v387h-279q-27 0 -43 16.5t-16 43.5v43q0 27 16.5 42t42.5 15h279v41h-279q-27 0 -43 15.5t-16 41.5v43q0 27 16.5 43.5t42.5 16.5h209l-274 487q-14 25 -4 42.5z" />
<glyph unicode="&#xad;" horiz-adv-x="999" d="M133 506v43q0 57 57 57h660q57 0 57 -57v-43q0 -57 -57 -57h-660q-57 0 -57 57z" />
<glyph unicode="&#xb1;" horiz-adv-x="999" d="M133 131v43q0 57 57 57h660q57 0 57 -57v-43q0 -57 -57 -57h-660q-57 0 -57 57zM133 610v43q0 57 57 58h252v250q0 27 16.5 43t43.5 16h39q27 0 42 -16.5t15 -42.5v-250h252q57 0 57 -58v-43q0 -57 -57 -57h-252v-250q0 -27 -15.5 -43t-41.5 -16h-39q-27 0 -43.5 16 t-16.5 43v250h-252q-57 0 -57 57z" />
<glyph unicode="&#xbc;" horiz-adv-x="1353" d="M113 1221v28q0 27 15 43.5t42 16.5q43 0 74.5 13t31.5 54q0 57 60 58h37q27 0 43 -15.5t16 -42.5v-827q0 -27 -16.5 -42t-42.5 -15h-37q-59 0 -60 57v614h-106q-57 0 -57 58zM299 -47l477 1472q16 47 62 48h39q35 0 48 -19.5t3 -50.5l-477 -1473q-6 -23 -23.5 -35 t-38.5 -12h-39q-35 0 -47 19.5t-4 50.5zM604 172v53q0 6 2 15.5t10 19.5l408 666q8 14 21.5 24.5t33.5 10.5h41q57 0 58 -58v-629h26q57 0 58 -57v-45q0 -57 -58 -57h-26v-70q0 -57 -58 -57h-39q-27 0 -43 15t-16 42v70h-360q-57 0 -58 57zM803 274h219v353z" />
<glyph unicode="&#xbd;" horiz-adv-x="1415" d="M113 1221v28q0 27 16 43.5t43 16.5q41 0 74 13t33 54q0 57 57 58h39q57 0 57 -58v-827q0 -57 -57 -57h-39q-57 0 -57 57v614h-107q-27 0 -43 15.5t-16 42.5zM301 -47l477 1472q16 47 62 48h39q35 0 47 -19.5t4 -50.5l-477 -1473q-16 -47 -62 -47h-39q-35 0 -48 19.5 t-3 50.5zM737 41q0 84 23.5 151.5t61.5 122t87 94.5t101 70l10 6q72 41 125 85t53 116q0 53 -40 87t-103 34q-49 0 -87 -16.5t-59 -57.5q-10 -23 -30.5 -28t-40.5 10l-45 26q-35 20 -21 66q35 76 117 115t166 39q66 0 121 -21.5t95 -58.5t61.5 -87.5t21.5 -107.5 q0 -68 -21.5 -118t-58.5 -90t-85 -71.5t-99 -60.5q-72 -41 -118 -91t-59 -105h365q23 0 38 -16.5t15 -35.5v-57q0 -23 -15.5 -38t-37.5 -15h-487q-23 0 -38.5 15t-15.5 38z" />
<glyph unicode="&#xbe;" horiz-adv-x="1595" d="M104 696q-4 20 7.5 29.5t33.5 15.5l54 19q31 8 42 0t19 -33q16 -47 58 -66.5t94 -19.5q66 0 111.5 38t45.5 116q0 55 -47 94t-147 41h-13q-23 0 -37 13t-14 38v53q0 23 14.5 37t36.5 14h9q35 2 69.5 6.5t63 15.5t47 31.5t18.5 53.5q0 53 -40 79.5t-111 26.5 q-119 0 -158 -77q-10 -23 -29.5 -28t-40.5 7l-43 25q-18 12 -23 24.5t5 38.5q33 76 106.5 120t182.5 44q55 0 110.5 -13.5t98.5 -44t70.5 -79.5t27.5 -123q0 -68 -33 -117t-86 -74q55 -35 87 -89t32 -117q0 -154 -88 -233t-225 -79q-53 0 -103.5 16.5t-91.5 45t-70.5 67.5 t-42.5 84zM541 -47l477 1472q16 47 61 48h39q35 0 48.5 -19.5t2.5 -50.5l-477 -1473q-6 -23 -23.5 -35t-37.5 -12h-39q-35 0 -47.5 19.5t-3.5 50.5zM846 172v53q0 6 2 15.5t10 19.5l408 666q8 14 21 24.5t34 10.5h41q57 0 57 -58v-629h27q57 0 57 -57v-45q0 -57 -57 -57h-27 v-70q0 -57 -57 -57h-39q-27 0 -43 15t-16 42v70h-361q-57 0 -57 57zM1044 274h220v353z" />
<glyph unicode="&#xbf;" horiz-adv-x="940" d="M82 319q0 61 17.5 110.5t44 88.5t60.5 71t66 60q45 39 81 78t36 98v281q0 27 16.5 43t42.5 16h39q27 0 42.5 -16t15.5 -43v-281q0 -55 -14.5 -98t-39 -77t-55.5 -62.5t-63 -55.5q-25 -20 -49.5 -41.5t-43 -46t-30.5 -55.5t-12 -70q0 -35 10 -66.5t35.5 -56t67.5 -39 t104 -14.5q80 0 146.5 43t102.5 107q10 23 32 32t44 -8l37 -20q23 -14 29 -30.5t-6 -45.5q-25 -55 -65 -98t-91 -73t-109.5 -45t-119.5 -15q-104 0 -176 27.5t-115 73.5t-61.5 105.5t-18.5 122.5zM346 1356q0 49 37 85t84 36q51 0 87 -36t36 -85q0 -47 -36 -84t-87 -37 q-47 0 -84 37t-37 84z" />
<glyph unicode="&#xe01;" horiz-adv-x="1001" d="M90 745q29 156 144.5 227.5t287.5 71.5q80 0 150.5 -20t123 -62t83 -103.5t30.5 -143.5v-658q0 -57 -57 -57h-39q-27 0 -43 15.5t-16 41.5v658q0 45 -18.5 77.5t-50.5 54t-74 33t-89 11.5q-96 0 -169.5 -28.5t-94.5 -94.5q16 -18 23.5 -45t7.5 -61v-605q0 -57 -58 -57 h-38q-57 0 -58 57v631q0 8 -6 27.5t-39 29.5z" />
<glyph unicode="&#xe02;" horiz-adv-x="860" d="M94 882.5q-6 22.5 6 45.5q33 53 85.5 84.5t117.5 31.5q47 0 89 -17t74 -46t50.5 -69t18.5 -83q0 -45 -15.5 -80.5t-43 -65.5t-64.5 -54.5t-78 -44.5q-39 -20 -54.5 -53t-15.5 -74v-166q0 -72 51.5 -123t122.5 -51q72 0 123 51t51 123v674q0 27 16.5 43t43.5 16h39 q27 0 42 -16.5t15 -42.5v-674q0 -68 -25.5 -128.5t-70.5 -105.5t-105.5 -70.5t-128.5 -25.5t-128 25.5t-105 70.5t-70.5 105.5t-25.5 128.5v172q0 90 35.5 143t127.5 94q45 18 77 47t32 66q0 33 -22.5 55.5t-55.5 22.5q-23 0 -41.5 -12.5t-28.5 -28.5q-27 -51 -77 -23 l-33 23q-23 10 -29 32.5z" />
<glyph unicode="&#xe03;" horiz-adv-x="864" d="M51 959q2 16 25 38l24 25q43 43 84 2l58 -59l84 79q43 0 81.5 -17t68.5 -46t46.5 -68t16.5 -84t-15.5 -79.5t-43 -63.5t-64.5 -52.5t-78 -43.5q-39 -20 -54.5 -53t-15.5 -74v-172q0 -72 50.5 -123t123.5 -51q72 0 123 51t51 123v674q0 27 15.5 43t42.5 16h39 q27 0 43 -16.5t16 -42.5v-674q0 -68 -25.5 -128.5t-70.5 -105.5t-105.5 -70.5t-128.5 -25.5t-128 25.5t-105 70.5t-70.5 105.5t-25.5 128.5v172q0 86 35.5 150.5t125.5 103.5q47 20 81 49t34 63q0 29 -12 45.5t-29 20.5l-129 -125l-145 148q-25 25 -23 41z" />
<glyph unicode="&#xe04;" horiz-adv-x="999" d="M133 57v658q0 82 31 143.5t83 103.5t122.5 62t150.5 20t150.5 -20t123 -62t83 -103.5t30.5 -143.5v-658q0 -57 -57 -57h-39q-57 0 -57 57v658q0 45 -18.5 77.5t-50.5 54t-74 33t-91 11.5q-96 0 -163.5 -44t-67.5 -132v-66q39 31 88 48.5t104 17.5q27 0 43.5 -15.5 t16.5 -42.5v-39q0 -27 -16.5 -42t-43.5 -15q-80 0 -136 -48t-56 -122v-334q0 -27 -16.5 -42t-43.5 -15h-39q-57 0 -57 57z" />
<glyph unicode="&#xe05;" horiz-adv-x="999" d="M133 57v662q0 74 25.5 131t70.5 98t105.5 64.5t128.5 31.5l65 -75l66 75q137 -16 225 -97t88 -228v-662q0 -57 -57 -57h-39q-57 0 -57 57v662q0 121 -115 160l-111 -129l-112 127q-53 -18 -90 -58.5t-37 -99.5v-70q39 31 88 50.5t104 19.5q27 0 43.5 -17.5t16.5 -44.5 v-39q0 -27 -16.5 -42t-43.5 -15q-80 0 -136 -48t-56 -122v-334q0 -27 -16.5 -42t-43.5 -15h-39q-57 0 -57 57z" />
<glyph unicode="&#xe06;" horiz-adv-x="1017" d="M72 57v39q0 27 15 43.5t42 16.5q14 0 17.5 5t3.5 15v287q0 86 35.5 150.5t125.5 103.5q47 20 81 49t34 63q0 29 -12.5 45.5t-28.5 20.5l-129 -125l-145 148q-25 25 -23 41t25 38l24 25q43 43 84 2l58 -59l83 79q43 0 82 -17t69 -46t46 -68t16 -84t-15 -79.5t-43 -63.5 t-64.5 -52.5t-77.5 -43.5q-39 -20 -54.5 -53t-15.5 -74v-86q0 -53 24.5 -96t64.5 -76t88 -50.5t98 -17.5q94 0 142 61.5t48 151.5v615q0 27 16.5 43t42.5 16h37q29 0 44.5 -16.5t15.5 -42.5v-615q0 -164 -91.5 -262t-254.5 -98q-78 0 -154 34.5t-121 86.5q-10 -61 -53 -86 t-102 -25h-21q-57 0 -57 57z" />
<glyph unicode="&#xe07;" horiz-adv-x="755" d="M52.5 626q2.5 21 25.5 36l28 22q20 14 43 12t41 -24l261 -383q14 150 27.5 279.5t25.5 279.5q4 20 -23 20q-57 0 -57 60v37q0 27 15.5 43t41.5 16h25q72 0 117 -37t39 -115q-18 -203 -39 -411.5t-37 -409.5q-4 -25 -16.5 -38t-41.5 -13h-39q-23 0 -31.5 8t-19.5 19 l-372 555q-16 23 -13.5 44z" />
<glyph unicode="&#xe08;" horiz-adv-x="888" d="M76 834q39 104 131 157t221 53q80 0 147.5 -20t116.5 -62t77 -103.5t28 -143.5v-658q0 -57 -58 -57h-39q-27 0 -43 15.5t-16 41.5v252q0 39 -15.5 75t-41 62.5t-61.5 42t-74 15.5q-27 0 -43.5 15.5t-16.5 41.5v39q0 27 16.5 43t43.5 16q59 0 105 -16t87 -49v121 q0 90 -58.5 133t-154.5 43q-76 0 -130 -27t-77 -82q-20 -51 -71 -32l-37 10q-53 20 -37 74z" />
<glyph unicode="&#xe09;" horiz-adv-x="962" d="M61 516v39q0 27 15.5 43t42.5 16q94 0 134 -41t40 -133v-90q0 -90 51 -147.5t145 -57.5q45 0 87 17.5t74 47.5t50.5 69.5t18.5 85.5v350q0 45 -18.5 77.5t-50.5 54t-73.5 33t-89.5 11.5q-86 0 -147 -35t-80 -108q-14 -41 -63 -35l-43 8q-29 4 -40.5 24.5t-7.5 42.5 q12 63 47 111.5t86.5 81.5t115 48t132.5 15q80 0 151 -20t123 -62t82.5 -103.5t30.5 -143.5v-539q0 -10 3.5 -15t17.5 -5q27 0 42 -16.5t15 -43.5v-39q0 -57 -57 -57h-21q-59 0 -98 21.5t-49 68.5q-45 -47 -103.5 -73.5t-134.5 -26.5q-162 0 -256 98t-94 262v90q0 18 -20 19 q-57 0 -58 57z" />
<glyph unicode="&#xe0a;" horiz-adv-x="860" d="M94 882.5q-6 22.5 6 45.5q33 53 85.5 84.5t117.5 31.5q80 0 142.5 -47t80.5 -116h4q82 0 82 88v141q0 27 16.5 42t43.5 15h39q57 0 57 -57v-141q0 -53 -9 -96.5t-57 -77.5q41 -29 53.5 -74t12.5 -94v-336q0 -68 -25.5 -128.5t-70.5 -105.5t-105.5 -70.5t-128.5 -25.5 t-128 25.5t-105 70.5t-70.5 105.5t-25.5 128.5v172q0 90 35.5 143t127.5 94q45 18 77 47t32 66q0 33 -22.5 55.5t-55.5 22.5q-23 0 -41.5 -12.5t-28.5 -28.5q-27 -51 -77 -23l-33 23q-23 10 -29 32.5zM264 291q0 -72 51.5 -123t122.5 -51q72 0 123 51t51 123v336 q0 55 -20.5 78.5t-61.5 23.5q-14 0 -20 2q-25 -47 -72 -83t-104 -64q-39 -20 -54.5 -53t-15.5 -74v-166z" />
<glyph unicode="&#xe0b;" horiz-adv-x="864" d="M51 959q2 16 25 38l24 25q43 43 84 2l58 -59l84 79q74 0 131 -46t75 -117h3q82 0 81 88v141q0 27 16.5 42t43.5 15h39q57 0 57 -57v-141q0 -53 -9 -96.5t-56 -77.5q41 -29 53 -74t12 -94v-336q0 -68 -25.5 -128.5t-70.5 -105.5t-105.5 -70.5t-128.5 -25.5t-128 25.5 t-105 70.5t-70.5 105.5t-25.5 128.5v172q0 86 35.5 150.5t125.5 103.5q47 20 81 49t34 63q0 29 -12 45.5t-29 20.5l-129 -125l-145 148q-25 25 -23 41zM268 291q0 -72 50.5 -123t123.5 -51q72 0 123 51t51 123v336q0 55 -20.5 78.5t-60.5 23.5q-14 0 -21 2q-27 -47 -73 -80 t-103 -61q-39 -20 -54.5 -53t-15.5 -74v-172z" />
<glyph unicode="&#xe0c;" horiz-adv-x="1351" d="M90 745q29 156 125 227.5t270 71.5q80 0 147.5 -20t117 -62t77 -103.5t27.5 -143.5v-406q0 -43 14.5 -73.5t36 -49t46 -27.5t46.5 -9q47 0 77 28.5t30 106.5v680q0 27 15.5 43t41.5 16h39q27 0 43.5 -16.5t16.5 -42.5v-680q0 -84 -24 -139.5t-60.5 -89t-84 -48 t-94.5 -14.5q-41 0 -86 15.5t-82 43.5q-23 -29 -55.5 -41t-75.5 -12h-20q-57 0 -57 57v39q0 27 15 43.5t42 16.5q14 0 17 5t3 15v539q0 90 -58 133t-155 43q-92 0 -147 -28.5t-80 -94.5q33 -35 33 -106v-488q0 -18 18 -18h21q27 0 42 -16.5t15 -43.5v-39q0 -57 -57 -57h-21 q-92 0 -133 41t-41 133v514q0 14 -6 29.5t-39 27.5z" />
<glyph unicode="&#xe0d;" horiz-adv-x="1351" d="M90 745q29 156 125 227.5t270 71.5q80 0 147.5 -20t117 -62t77 -103.5t27.5 -143.5v-482q0 -49 36 -68.5t89 -19.5t89 19.5t36 68.5v732q0 27 15.5 43t41.5 16h39q27 0 43.5 -16.5t16.5 -42.5v-963q0 -59 -23 -104t-60.5 -76t-89 -46.5t-108.5 -15.5q-72 0 -135.5 25 t-98.5 72q-16 20 -11 43.5t28 40.5l29 20q23 16 45 11t34 -25q16 -16 45 -24.5t64 -8.5q53 0 89 20.5t36 67.5v10q-57 -23 -125 -22q-59 0 -109.5 15t-89.5 46t-60.5 77t-21.5 105v482q0 90 -58 133t-155 43q-92 0 -147 -28.5t-80 -94.5q33 -35 33 -106v-488q0 -18 18 -18 h21q27 0 42 -16.5t15 -43.5v-39q0 -57 -57 -57h-21q-92 0 -133 41t-41 133v514q0 14 -6 29.5t-39 27.5z" />
<glyph unicode="&#xe0e;" horiz-adv-x="995" d="M31 57v39q0 27 15 43.5t42 16.5h21q18 0 18 18v514q0 8 -6 27.5t-39 29.5q29 156 145.5 227.5t288.5 71.5q80 0 149.5 -20t122 -62t83 -103.5t30.5 -143.5l2 -1004q0 -27 -16.5 -43t-42.5 -16h-39q-27 0 -42 16t-15 43t-19.5 39t-38.5 12h-407q-57 0 -58 58v45 q0 27 15.5 43t42.5 16h407q14 0 31.5 -4t26.5 -14v809q0 45 -18.5 77.5t-50.5 54t-74 33t-89 11.5q-96 0 -170 -28.5t-94 -94.5q16 -18 23.5 -45t7.5 -61v-488q0 -92 -41 -133t-133 -41h-21q-57 0 -57 57z" />
<glyph unicode="&#xe0f;" horiz-adv-x="993" d="M31 57v39q0 27 15 43.5t42 16.5h21q18 0 18 18v514q0 8 -6 27.5t-39 29.5q29 156 145.5 227.5t288.5 71.5q80 0 149.5 -20t122 -62t83 -103.5t30.5 -143.5v-1004q0 -27 -16.5 -43t-42.5 -16h-37q-27 0 -42 16.5t-15 42.5q0 25 -16.5 41.5t-41.5 16.5q-27 0 -43 -16.5 t-16 -41.5q0 -27 -15.5 -43t-42.5 -16h-38q-27 0 -42.5 16.5t-15.5 42.5q0 25 -17.5 41.5t-41.5 16.5h-135q-57 0 -58 57v39q0 27 15.5 43t42.5 16h153q37 0 66.5 -10t50.5 -39q23 29 56.5 39t66.5 10q14 0 36.5 -4t35.5 -10v805q0 45 -18.5 77.5t-50.5 54t-74 33t-89 11.5 q-96 0 -170 -28.5t-94 -94.5q16 -18 23.5 -45t7.5 -61v-488q0 -92 -41 -133t-133 -41h-21q-57 0 -57 57z" />
<glyph unicode="&#xe10;" horiz-adv-x="825" d="M74 883q-31 45 18 80q51 39 127 55t154 16h198q33 0 62 16.5t45 39.5q14 23 32.5 33t49.5 -17l35 -31q16 -16 18 -38.5t-10 -39.5q-27 -35 -55.5 -59.5t-67.5 -40.5q29 -37 44 -85t15 -107v-648q0 -27 -16 -42t-43 -15h-37q-27 0 -43 15.5t-16 41.5v260 q-4 78 -59.5 132.5t-133.5 54.5q-27 0 -43 15.5t-16 41.5v39q0 27 16.5 43t42.5 16q111 0 193 -65v111q0 86 -57.5 127.5t-155.5 46.5q-53 0 -105.5 -9.5t-79.5 -33.5q-23 -23 -45 -17t-39 27zM178 -205q0 57 58 58h90q35 0 34 20q0 57 60 57h39q35 0 46 -15t11 -42t33 -27 q23 0 29 8.5t6 18.5v43q0 27 16 43t43 16h37q27 0 43 -16t16 -43v-43q0 -80 -56 -125t-134 -45q-66 0 -113 29q-23 -23 -50.5 -26t-59.5 -3h-90q-27 0 -42.5 16.5t-15.5 42.5v33z" />
<glyph unicode="&#xe11;" horiz-adv-x="978" d="M51 959q2 16 25 38l24 25q43 43 84 2l58 -59l84 79q51 0 96 -22.5t74 -63.5q35 39 78.5 62.5t97.5 23.5q63 0 104 -17t65.5 -48t35 -72t10.5 -86v-764q0 -57 -58 -57h-38q-27 0 -43.5 15.5t-16.5 41.5v764q0 29 -13 49.5t-54 20.5q-39 0 -70 -37t-70 -100 q-23 -55 -73 -93t-113 -71q-39 -20 -55.5 -53t-16.5 -74v-406q0 -57 -57 -57h-39q-57 0 -57 57v406q0 86 35.5 150.5t125.5 103.5q47 20 81 49t34 63q0 29 -12 45.5t-29 20.5l-129 -125l-145 148q-25 25 -23 41z" />
<glyph unicode="&#xe12;" horiz-adv-x="1370" d="M133 270v449q0 262 273 311l98 -110l100 110q121 -29 194.5 -108.5t73.5 -202.5v-410q0 -43 14.5 -73.5t36 -49t46 -27.5t47.5 -9q47 0 76.5 28.5t29.5 106.5v680q0 27 15.5 43t42.5 16h39q27 0 43 -16.5t16 -42.5v-680q0 -84 -23.5 -139.5t-60.5 -89t-84 -48t-94 -14.5 q-41 0 -86 15.5t-82 43.5q-23 -29 -55.5 -41t-75.5 -12h-21q-57 0 -57 57v39q0 27 15.5 43.5t41.5 16.5q14 0 17.5 5t3.5 15v543q0 106 -103 158l-110 -127l-109 124q-49 -23 -77.5 -62.5t-28.5 -92.5v-449q0 -53 21.5 -92t74.5 -39q29 0 46.5 11.5t27.5 31.5q16 29 32.5 31 t40.5 -14l41 -23q29 -16 29 -34.5t-12 -41.5q-35 -59 -82 -84.5t-123 -25.5q-66 0 -113 22.5t-77.5 60.5t-46 89t-15.5 108z" />
<glyph unicode="&#xe13;" horiz-adv-x="1347" d="M90 745q29 156 125 227.5t270 71.5q80 0 148.5 -20t118 -62t77 -103.5t27.5 -143.5v-430q0 -78 34 -109t81 -31q53 0 92 36t43 118v666q0 27 15.5 43t41.5 16h39q27 0 42.5 -16.5t15.5 -42.5v-789q0 -10 3 -15t17 -5q27 0 42 -16.5t15 -43.5v-39q0 -57 -57 -57h-20 q-86 0 -125 47q-66 -57 -164 -57q-47 0 -95.5 14t-87 49t-63.5 91.5t-25 140.5v430q0 90 -59 133t-156 43q-92 0 -147 -28.5t-80 -94.5q33 -35 33 -106v-488q0 -18 20 -18h19q27 0 43 -16.5t16 -43.5v-39q0 -27 -16.5 -42t-42.5 -15h-19q-94 0 -134 41t-40 133v514 q0 14 -7 29.5t-40 27.5z" />
<glyph unicode="&#xe14;" horiz-adv-x="993" d="M106 270v445q0 82 32 143.5t87.5 103.5t127 62t151.5 20t151.5 -20t127 -62t87 -103.5t31.5 -143.5v-658q0 -57 -57 -57h-39q-57 0 -57 57v658q0 45 -19.5 77.5t-53.5 54t-78 33t-93 11.5q-47 0 -91 -11.5t-78 -33t-53.5 -55t-19.5 -76.5v-445q0 -53 37 -89t90 -36 q29 0 53.5 11.5t40.5 29.5q31 39 72 13l41 -23q29 -16 29 -36.5t-17 -43.5q-39 -47 -97 -76.5t-122 -29.5q-59 0 -110.5 22.5t-89 60.5t-60.5 89t-23 108z" />
<glyph unicode="&#xe15;" horiz-adv-x="993" d="M106 270v435q0 74 25 131t68 98t101 64.5t126 31.5l86 -94l86 94q137 -16 220 -97t83 -228v-648q0 -57 -57 -57h-39q-57 0 -57 57v648q0 61 -26 106t-81 63l-129 -139l-123 137q-53 -18 -90 -63t-37 -104v-435q0 -53 37 -89t90 -36q29 0 53.5 11.5t40.5 29.5q31 39 72 13 l41 -23q29 -16 29 -36.5t-17 -43.5q-39 -47 -97 -76.5t-122 -29.5q-59 0 -110.5 22.5t-89 60.5t-60.5 89t-23 108z" />
<glyph unicode="&#xe16;" horiz-adv-x="1001" d="M90 745q29 156 144.5 227.5t287.5 71.5q80 0 150.5 -20t123 -62t83 -103.5t30.5 -143.5v-658q0 -57 -57 -57h-39q-27 0 -43 15.5t-16 41.5v658q0 45 -18.5 77.5t-50.5 54t-74 33t-89 11.5q-96 0 -169.5 -28.5t-94.5 -94.5q16 -18 23.5 -45t7.5 -61v-488q0 -18 20 -18h19 q27 0 43 -16.5t16 -43.5v-39q0 -27 -16.5 -42t-42.5 -15h-19q-94 0 -134 41t-40 133v514q0 8 -6 27.5t-39 29.5z" />
<glyph unicode="&#xe17;" horiz-adv-x="995" d="M51 928v37q0 27 15.5 43t42.5 16q72 0 115.5 -29.5t47.5 -85.5q20 25 52 47.5t69 40t78 27.5t82 10q162 0 256 -98t94 -262v-617q0 -27 -16.5 -42t-42.5 -15h-39q-57 0 -57 57v617q0 90 -51.5 147.5t-143.5 57.5q-49 0 -96 -17.5t-85 -48.5t-62.5 -72t-26.5 -86v-598 q0 -57 -58 -57h-39q-27 0 -43 15.5t-16 41.5v793q0 18 -18 18q-57 0 -58 60z" />
<glyph unicode="&#xe18;" horiz-adv-x="931" d="M102 768q0 72 28 127t77 93t117.5 57.5t148.5 19.5q129 0 232.5 -59.5t140.5 -169.5q8 -25 0 -44.5t-37 -29.5l-37 -12q-27 -10 -48.5 1.5t-25.5 34.5q-14 63 -77.5 100.5t-147.5 37.5q-96 0 -155.5 -35t-59.5 -103q0 -35 28.5 -59.5t67.5 -39.5t79 -24.5t63 -15.5 q66 -18 128 -39.5t111 -55.5t79 -82t30 -120v-31q0 -170 -99.5 -249.5t-261.5 -79.5t-260 80t-98 249v107q0 27 16.5 42t42.5 15h39q57 0 58 -57v-107q0 -90 54 -132t148 -42q96 0 151.5 42t55.5 132v31q0 35 -19.5 59.5t-52 43t-74.5 33t-87 26.5q-51 14 -112.5 30.5 t-116 44t-90.5 70.5t-36 111z" />
<glyph unicode="&#xe19;" horiz-adv-x="991" d="M51 928v37q0 27 15.5 43t42.5 16q94 0 135 -41t41 -133v-500q0 -90 51 -147.5t143 -57.5q49 0 97.5 18.5t87 50.5t62.5 74t24 89v588q0 27 15 43t42 16h39q27 0 42 -16.5t15 -42.5v-789q0 -10 3 -15t18 -5q27 0 42 -16.5t15 -43.5v-39q0 -57 -57 -57h-21q-57 0 -99 21.5 t-54 78.5q-43 -47 -120 -78.5t-151 -31.5q-162 0 -256 98t-94 262v500q0 18 -20 18q-57 0 -58 60z" />
<glyph unicode="&#xe1a;" horiz-adv-x="995" d="M51 928v37q0 27 15.5 43t42.5 16q92 0 133 -41t41 -133v-617q0 -35 20.5 -52t54 -25.5t74.5 -9.5t84 -1t85 1t74 9.5t52.5 26t20.5 51.5v732q0 27 15 43t42 16h39q27 0 43 -16.5t16 -42.5v-732q0 -88 -30.5 -137t-83 -72.5t-123 -28.5t-150.5 -5t-150.5 5t-124 28.5 t-84 72.5t-30.5 137v617q0 18 -18 18q-57 0 -58 60z" />
<glyph unicode="&#xe1b;" horiz-adv-x="995" d="M51 928v37q0 27 15.5 43t42.5 16q92 0 133 -41t41 -133v-617q0 -35 20.5 -52t54 -25.5t74.5 -9.5t84 -1t85 1t74 9.5t52.5 26t20.5 51.5v1039q0 27 15 43t42 16h39q27 0 43 -16.5t16 -42.5v-1039q0 -88 -30.5 -137t-83 -72.5t-123 -28.5t-150.5 -5t-150.5 5t-124 28.5 t-84 72.5t-30.5 137v617q0 18 -18 18q-57 0 -58 60z" />
<glyph unicode="&#xe1c;" horiz-adv-x="999" d="M113 311v539q0 92 41 133t133 41q27 0 43 -16.5t16 -42.5v-37q0 -29 -16.5 -44.5t-42.5 -15.5q-18 0 -19 -18v-539q0 -53 24.5 -87t65.5 -56q35 41 78 90t74 84l152 -174q41 23 65.5 56.5t24.5 84.5v656q0 27 16 43t43 16h39q27 0 42 -16.5t15 -42.5v-656 q0 -66 -22.5 -118t-62.5 -92t-94 -67.5t-116 -41.5l-102 119l-102 -119q-61 14 -115.5 41.5t-94.5 67.5t-62.5 93.5t-22.5 118.5z" />
<glyph unicode="&#xe1d;" horiz-adv-x="999" d="M113 311v539q0 92 41 133t133 41q27 0 43 -16.5t16 -42.5v-37q0 -29 -16.5 -44.5t-42.5 -15.5q-18 0 -19 -18v-539q0 -53 24.5 -87t65.5 -56q35 41 78 90t74 84l152 -174q41 23 65.5 56.5t24.5 84.5v963q0 27 16 43t43 16h39q27 0 42 -16.5t15 -42.5v-963 q0 -66 -22.5 -118t-62.5 -92t-94 -67.5t-116 -41.5l-102 119l-102 -119q-61 14 -115.5 41.5t-94.5 67.5t-62.5 93.5t-22.5 118.5z" />
<glyph unicode="&#xe1e;" horiz-adv-x="1013" d="M51 928v37q0 27 15.5 43t42.5 16q94 0 134 -41t40 -133v-371l196 490q6 12 12.5 22t32.5 10q27 0 33 -10t12 -22l199 -492v488q0 27 15.5 43t41.5 16h39q27 0 42.5 -16.5t15.5 -42.5v-908q0 -57 -58 -57h-39q-18 0 -33.5 10t-19.5 27q-35 88 -64.5 162.5t-59.5 145.5 t-59.5 145.5t-64.5 164.5q-61 -160 -122.5 -311t-122.5 -309q-16 -35 -54 -35h-39q-57 0 -57 57v793q0 18 -20 18q-57 0 -58 60z" />
<glyph unicode="&#xe1f;" horiz-adv-x="1013" d="M51 928v37q0 27 15.5 43t42.5 16q94 0 134 -41t40 -133v-371l196 490q6 12 12.5 22t32.5 10q27 0 33 -10t12 -22l199 -492v795q0 27 15.5 43t41.5 16h39q27 0 42.5 -16.5t15.5 -42.5v-1215q0 -57 -58 -57h-39q-18 0 -33.5 10t-19.5 27q-35 88 -64.5 162.5t-59.5 145.5 t-59.5 145.5t-64.5 164.5q-61 -160 -122.5 -311t-122.5 -309q-16 -35 -54 -35h-39q-57 0 -57 57v793q0 18 -20 18q-57 0 -58 60z" />
<glyph unicode="&#xe20;" horiz-adv-x="995" d="M31 57v39q0 27 15 43.5t42 16.5h21q18 0 18 18v514q0 8 -6 27.5t-39 29.5q29 156 145.5 227.5t288.5 71.5q80 0 150.5 -20t123 -62t83 -103.5t30.5 -143.5v-658q0 -27 -16.5 -42t-42.5 -15h-39q-57 0 -57 57v658q0 45 -18.5 77.5t-50.5 54t-74 33t-89 11.5 q-96 0 -170 -28.5t-94 -94.5q16 -18 23.5 -45t7.5 -61v-488q0 -92 -41 -133t-133 -41h-21q-57 0 -57 57z" />
<glyph unicode="&#xe21;" horiz-adv-x="997" d="M51 57v39q0 27 15.5 43.5t42.5 16.5q14 0 17 5t3 15v674q0 18 -18 18q-57 0 -58 60v37q0 27 15.5 43t42.5 16q92 0 133 -41t41 -133v-485q0 -45 24.5 -85t62.5 -70t86 -47.5t97 -17.5q92 0 143.5 57.5t51.5 147.5v615q0 27 15 43t42 16h39q27 0 43 -16.5t16 -42.5v-615 q0 -164 -94 -262t-256 -98q-78 0 -151.5 34.5t-118.5 86.5q-10 -61 -53.5 -86t-102.5 -25h-20q-57 0 -58 57z" />
<glyph unicode="&#xe22;" horiz-adv-x="970" d="M102 340q0 78 35 144.5t82 101.5q-43 27 -74.5 79t-31.5 123q0 133 80.5 193.5t205.5 60.5q16 0 42 -2t49.5 -9t41 -21.5t17.5 -38.5v-35q0 -29 -19.5 -47.5t-52.5 -7.5q-18 6 -36.5 10t-34.5 4q-63 0 -100.5 -24.5t-37.5 -75.5q0 -39 15.5 -61.5t45 -35t70.5 -15.5 t93 -3q27 0 42 -16.5t15 -42.5v-39q0 -57 -57 -58q-96 0 -165 -48t-69 -136q0 -45 18.5 -81t50 -61.5t73.5 -39t92 -13.5q47 0 89 10.5t73.5 32t50 54t18.5 77.5v646q0 27 15.5 43t41.5 16h39q27 0 43.5 -16.5t16.5 -42.5v-646q0 -84 -31 -146t-83 -103t-123 -60.5 t-150 -19.5q-80 0 -152 23.5t-124 67.5t-83 109.5t-31 149.5z" />
<glyph unicode="&#xe23;" horiz-adv-x="931" d="M102 743q0 80 30 139.5t80 100.5t117.5 61.5t143.5 20.5q129 0 232.5 -59.5t140.5 -169.5q8 -25 0 -44.5t-37 -29.5l-37 -12q-27 -10 -48.5 2t-25.5 34q-14 63 -77.5 93t-147.5 30q-96 0 -153.5 -41t-57.5 -125q0 -31 19.5 -52t51.5 -38.5t72.5 -30t86.5 -22.5 q68 -16 130 -37.5t111 -54.5t79 -83t30 -124q0 -78 -31 -137.5t-81 -99t-114.5 -61t-132.5 -21.5q-84 0 -177 37.5t-152 111.5q-16 23 -14.5 46.5t24.5 37.5l37 25q25 16 47.5 12t34.5 -27q29 -41 81 -63.5t117 -22.5q39 0 76 10.5t64.5 30t45 50t17.5 71.5q0 35 -19.5 58.5 t-51 39t-73.5 26.5t-87 21q-68 16 -130.5 38t-111.5 55.5t-79 83t-30 120.5z" />
<glyph unicode="&#xe24;" horiz-adv-x="1003" d="M90 745q29 156 145.5 227.5t288.5 71.5q80 0 150.5 -20t123 -62t83 -103.5t30.5 -143.5v-1004q0 -27 -15 -43t-42 -16h-39q-27 0 -43 16.5t-16 42.5v1004q0 45 -18.5 77.5t-50.5 54t-74 33t-89 11.5q-96 0 -169.5 -28.5t-94.5 -94.5q16 -18 23.5 -45t7.5 -61v-488 q0 -18 20 -18h19q27 0 43 -16.5t16 -43.5v-39q0 -27 -16.5 -42t-42.5 -15h-19q-94 0 -134 41t-40 133v514q0 8 -7 27.5t-40 29.5z" />
<glyph unicode="&#xe25;" horiz-adv-x="960" d="M92 309q0 82 31 149.5t84 117t123.5 76t150.5 26.5q61 0 123 -18.5t109 -53.5v109q0 45 -18.5 77.5t-50.5 54t-74 33t-89 11.5q-74 0 -130 -23.5t-85 -70.5q-12 -18 -26.5 -31.5t-46.5 2.5l-39 18q-53 20 -27 78q47 92 141 136t213 44q80 0 150.5 -20t123 -62t83 -103.5 t30.5 -143.5v-658q0 -27 -16 -42t-43 -15h-37q-27 0 -43 15.5t-16 41.5v252q0 47 -18.5 86t-50.5 68t-74 44t-89 15q-49 0 -91 -15t-73.5 -44t-50 -68t-18.5 -86q0 -57 27.5 -98t70.5 -66q25 -12 34 -31.5t-7 -47.5q-4 -10 -11.5 -19.5t-11.5 -19.5q-14 -25 -32.5 -29 t-38.5 6q-80 41 -133.5 120t-53.5 185z" />
<glyph unicode="&#xe26;" horiz-adv-x="995" d="M31 57v39q0 27 15 43.5t42 16.5h21q18 0 18 18v514q0 8 -6 27.5t-39 29.5q29 156 145.5 227.5t288.5 71.5q80 0 150.5 -20t123 -62t83 -103.5t30.5 -143.5v-1004q0 -27 -16.5 -43t-42.5 -16h-39q-27 0 -42 16.5t-15 42.5v1004q0 45 -18.5 77.5t-50.5 54t-74 33t-89 11.5 q-96 0 -170 -28.5t-94 -94.5q16 -18 23.5 -45t7.5 -61v-488q0 -92 -41 -133t-133 -41h-21q-57 0 -57 57z" />
<glyph unicode="&#xe27;" horiz-adv-x="849" d="M55 834q39 104 132.5 157t222.5 53q162 0 255 -81.5t93 -247.5v-445q0 -57 -22.5 -108t-60.5 -89t-89 -60.5t-109 -22.5q-66 0 -124 29.5t-97 76.5q-16 23 -16 43.5t28 36.5l41 23q41 27 72 -13q35 -41 96 -41q53 0 89 36t36 89v445q0 90 -50 133t-142 43q-78 0 -132 -27 t-77 -82q-16 -51 -72 -32l-37 10q-53 20 -37 74z" />
<glyph unicode="&#xe28;" horiz-adv-x="999" d="M133 57v658q0 82 31 143.5t83 103.5t122.5 62t150.5 20q47 0 97.5 -10t91.5 -26q29 8 37 37.5t8 64.5q0 57 57 57h39q57 0 57 -57q0 -66 -15 -114t-54 -78q70 -82 69 -203v-658q0 -57 -57 -57h-39q-57 0 -57 57v658q0 45 -18.5 77.5t-50.5 54t-74 33t-91 11.5 q-96 0 -163.5 -44t-67.5 -132v-66q39 31 88 48.5t104 17.5q27 0 43.5 -15.5t16.5 -42.5v-39q0 -27 -16.5 -42t-43.5 -15q-39 0 -73.5 -14.5t-61.5 -40t-42 -59t-15 -70.5v-320q0 -27 -16.5 -42t-43.5 -15h-39q-57 0 -57 57z" />
<glyph unicode="&#xe29;" horiz-adv-x="989" d="M51 928v37q0 27 16.5 43t43.5 16q92 0 133 -41t41 -133v-617q0 -35 20.5 -52t54 -25.5t74.5 -9.5t84 -1t85 1t74 9.5t52.5 26t20.5 51.5v271h-29q-94 0 -134 41t-40 133q0 57 57 57h39q57 0 57 -57q0 -18 21 -19h29v306q0 27 15 43t42 16h39q27 0 43 -16.5t16 -42.5v-306 h68q27 0 42 -16t15 -43v-39q0 -57 -57 -57h-68v-271q0 -88 -30.5 -137t-84 -72.5t-124 -28.5t-150.5 -5t-150.5 5t-123 28.5t-83 72.5t-30.5 137v617q0 18 -18 18q-27 0 -43.5 15.5t-16.5 44.5z" />
<glyph unicode="&#xe2a;" horiz-adv-x="960" d="M92 309q0 82 31 149.5t84 117t123.5 76t150.5 26.5q61 0 123 -18.5t109 -53.5v109q0 45 -18.5 77.5t-50.5 54t-74 33t-89 11.5q-74 0 -130 -23.5t-85 -70.5q-12 -18 -26.5 -31.5t-46.5 2.5l-39 18q-53 20 -27 78q47 92 141 136t213 44q47 0 98.5 -10t92.5 -26 q29 8 35 37.5t6 64.5q0 27 16 42t43 15h37q27 0 43 -15t16 -42q0 -66 -16 -114t-53 -78q70 -82 69 -203v-658q0 -27 -16 -42t-43 -15h-37q-27 0 -43 15.5t-16 41.5v252q0 47 -18.5 86t-50.5 68t-74 44t-89 15q-49 0 -91 -15t-73.5 -44t-50 -68t-18.5 -86q0 -57 27.5 -98 t70.5 -66q25 -12 34 -31.5t-7 -47.5q-4 -10 -11.5 -19.5t-11.5 -19.5q-14 -25 -32.5 -29t-38.5 6q-80 41 -133.5 120t-53.5 185z" />
<glyph unicode="&#xe2b;" horiz-adv-x="995" d="M51 928v37q0 27 15.5 43t42.5 16q92 0 133 -41t41 -133v-160q16 16 36.5 28.5t42.5 24.5q23 131 123.5 206t243.5 75q27 0 42 -16.5t15 -42.5v-37q0 -59 -57 -60q-61 0 -108.5 -19.5t-75.5 -57.5h8q162 0 256 -98.5t94 -262.5v-373q0 -27 -16.5 -42t-42.5 -15h-39 q-57 0 -57 57v373q0 92 -51.5 149.5t-143.5 57.5q-49 0 -97 -18.5t-87 -50t-62.5 -73.5t-23.5 -89v-349q0 -57 -58 -57h-39q-27 0 -43 15.5t-16 41.5v793q0 18 -18 18q-57 0 -58 60z" />
<glyph unicode="&#xe2c;" horiz-adv-x="1019" d="M51 928v37q0 27 15.5 43t42.5 16q94 0 134 -41t40 -133v-371l196 490q6 12 12.5 22t32.5 10q27 0 33 -10t12 -22l199 -492v453q0 43 -20.5 71.5t-61.5 28.5q-57 0 -57 57v39q0 27 15 43.5t42 16.5q47 0 67.5 22.5t20.5 63.5q0 27 15.5 43t41.5 16h39q27 0 42.5 -16.5 t15.5 -42.5q0 -106 -66 -172q31 -31 45.5 -75t14.5 -95v-873q0 -57 -58 -57h-39q-41 0 -55 39l-246 618l-245 -622q-16 -35 -54 -35h-39q-57 0 -57 57v793q0 18 -20 18q-57 0 -58 60z" />
<glyph unicode="&#xe2d;" horiz-adv-x="970" d="M102 319v107q0 43 16.5 82t46.5 68.5t68.5 46t81.5 16.5q27 0 43.5 -16.5t16.5 -42.5v-39q0 -27 -16.5 -42.5t-43.5 -15.5q-25 0 -41 -16t-16 -41v-107q0 -90 68.5 -132t165.5 -42q47 0 89 10.5t73.5 32t50 54t18.5 77.5v396q0 45 -18.5 77.5t-50 54t-73.5 33t-89 11.5 q-86 0 -150 -30.5t-80 -102.5q-16 -49 -65 -43l-39 6q-29 4 -40.5 24.5t-6.5 42.5q12 63 47 111.5t86 81.5t114.5 48t133.5 15q80 0 150.5 -20t122.5 -62t83 -103.5t31 -143.5v-396q0 -84 -31 -146t-83 -103t-123 -60.5t-150 -19.5q-80 0 -152 19.5t-124 60.5t-83 103.5 t-31 145.5z" />
<glyph unicode="&#xe2e;" horiz-adv-x="970" d="M102 319v107q0 43 16.5 82t46.5 68.5t68.5 46t81.5 16.5q27 0 43.5 -16.5t16.5 -42.5v-39q0 -27 -16.5 -42.5t-43.5 -15.5q-25 0 -41 -16t-16 -41v-107q0 -90 68.5 -132t165.5 -42q47 0 89 10.5t73.5 32t50 54t18.5 77.5v396q0 45 -18.5 77.5t-50 54t-73.5 33t-89 11.5 q-86 0 -151 -34t-81 -107q-14 -41 -63 -35l-39 6q-29 4 -40.5 24.5t-6.5 42.5q12 63 47 111.5t86 81.5t114.5 48t133.5 15q47 0 96 -10t90 -26q29 8 37 37.5t8 64.5q0 57 57 57h39q27 0 43.5 -15t16.5 -42q0 -66 -16.5 -114t-53.5 -78q33 -41 51.5 -91.5t18.5 -111.5v-396 q0 -84 -31 -146t-83 -103t-123 -60.5t-150 -19.5q-80 0 -152 19.5t-124 60.5t-83 103.5t-31 145.5z" />
<glyph unicode="&#xe2f;" horiz-adv-x="819" d="M31 948q0 57 57 58h39q57 0 57 -58q0 -41 15.5 -75.5t42 -61.5t61.5 -42t76 -15q39 0 73.5 14t61.5 41t43 62.5t16 76.5q0 57 58 58h39q57 0 57 -58v-715q0 -74 -33 -133t-88 -98q-18 -14 -40.5 -12t-39.5 24l-26 31q-18 23 -13 46.5t27 35.5q27 18 43 46t16 60v424 q-43 -29 -92 -43t-102 -14q-72 0 -135.5 27.5t-110.5 75t-74.5 111t-27.5 134.5z" />
<glyph unicode="&#xe30;" horiz-adv-x="716" d="M92 317q0 27 15.5 43.5t42.5 16.5h38q27 0 43.5 -16.5t16.5 -43.5q0 -8 3 -13t15 -5h309q27 0 43.5 -15.5t16.5 -41.5v-39q0 -27 -16.5 -43.5t-43.5 -16.5h-309q-94 0 -134 41t-40 133zM92 821q0 27 15.5 43.5t42.5 16.5h38q27 0 43.5 -16.5t16.5 -43.5q0 -8 3 -13t15 -5 h309q27 0 43.5 -16.5t16.5 -43.5v-38q0 -27 -16.5 -42.5t-43.5 -15.5h-309q-94 0 -134 41t-40 133z" />
<glyph unicode="&#xe31;" d="M-559 1327q0 57 57 57h43q27 0 43.5 -15t16.5 -42q0 -14 10 -14h455q57 0 57 -58v-38q0 -57 -57 -58h-455q-100 0 -135 36t-35 132z" />
<glyph unicode="&#xe32;" horiz-adv-x="776" d="M29 790.5q-8 20.5 0 45.5q39 98 123 153t194 55q72 0 133.5 -23.5t107.5 -67.5t71.5 -104.5t25.5 -133.5v-658q0 -57 -57 -57h-39q-27 0 -43.5 15.5t-16.5 41.5v658q0 78 -51 127t-131 49q-61 0 -105 -28.5t-67 -80.5q-8 -23 -27.5 -33t-46.5 1l-34 10q-29 10 -37 30.5z " />
<glyph unicode="&#xe33;" horiz-adv-x="761" d="M-358 1251q0 59 41 100.5t98 41.5t99 -41t42 -101q0 -59 -42 -99t-99 -40t-98 40t-41 99zM-256 1251q0 -16 11.5 -27.5t27.5 -11.5t27.5 11.5t11.5 27.5t-11.5 27.5t-27.5 11.5t-27.5 -11.5t-11.5 -27.5zM16 790.5q-8 20.5 0 45.5q39 98 123 153t195 55q72 0 133 -23.5 t107.5 -67.5t72 -104.5t25.5 -133.5v-658q0 -57 -58 -57h-39q-27 0 -43 15.5t-16 41.5v658q0 78 -51 127t-131 49q-61 0 -105.5 -28.5t-66.5 -80.5q-8 -23 -27.5 -33t-46.5 1l-35 10q-29 10 -37 30.5z" />
<glyph unicode="&#xe34;" d="M-852 1225v47q0 27 16.5 42t42.5 15h633q57 0 58 -57v-47q0 -57 -58 -58h-633q-27 0 -43 15.5t-16 42.5z" />
<glyph unicode="&#xe35;" d="M-852 1225v32q0 27 16.5 42.5t42.5 15.5h547v55q0 57 58 57h28q57 0 58 -57v-145q0 -57 -58 -58h-633q-27 0 -43 15.5t-16 42.5z" />
<glyph unicode="&#xe36;" d="M-850 1225v32q0 57 57 58h449q6 49 44 82t87 33q53 0 92 -39t39 -93q0 -53 -39 -92t-92 -39h-580q-57 0 -57 58z" />
<glyph unicode="&#xe37;" d="M-852 1225v32q0 27 16.5 42.5t42.5 15.5h355v55q0 57 57 57h29q27 0 43 -15t16 -42v-55h47v55q0 57 58 57h28q57 0 58 -57v-145q0 -57 -58 -58h-633q-27 0 -43 15.5t-16 42.5z" />
<glyph unicode="&#xe38;" d="M-319 -180q0 57 57 57h29q49 0 75.5 -9t39 -27.5t14.5 -44t2 -56.5v-154q0 -57 -52 -57h-34q-53 0 -54 57v115q0 10 -3 15t-17 5q-27 0 -42 16.5t-15 43.5v39z" />
<glyph unicode="&#xe39;" d="M-510 -180q0 57 57 57h29q49 0 74.5 -9t37 -27.5t12.5 -44t1 -56.5v-76q2 -4 10 -6t17 -2q8 0 16 2t8 6v156q0 57 58 57h30q57 0 58 -57v-174q0 -39 -12.5 -62.5t-34 -36t-51 -15.5t-66.5 -3q-74 0 -120 19.5t-46 97.5v55q0 10 -3 15t-18 5q-27 0 -42 16.5t-15 43.5v39z " />
<glyph unicode="&#xe3a;" d="M-246 -215q0 39 26.5 65.5t65.5 26.5t66 -26.5t27 -65.5t-27 -65.5t-66 -26.5t-65.5 26.5t-26.5 65.5z" />
<glyph unicode="&#xe3f;" horiz-adv-x="1085" d="M133 57v1241q0 57 57 58h228v20q0 57 57 58h39q57 0 57 -58v-20h15q72 0 135 -24.5t110.5 -68.5t75 -104.5t27.5 -134.5t-28.5 -135.5t-82.5 -108.5q88 -55 144.5 -148t56.5 -206q0 -92 -35 -171t-95 -135.5t-141 -88t-173 -31.5h-9v-63q0 -27 -15 -43.5t-42 -16.5h-39 q-27 0 -42 16.5t-15 43.5v63h-228q-57 0 -57 57zM287 162h131v530h-131v-530zM287 850h131v346h-131v-346zM571 162h9q59 0 112 19.5t92 54t61.5 83t22.5 107.5q0 57 -21.5 106.5t-59 84t-88 55t-107.5 20.5h-21v-530zM571 850h15q80 0 137 48t57 126t-57 125t-137 47h-15 v-346z" />
<glyph unicode="&#xe40;" horiz-adv-x="376" d="M113 147v818q0 27 16 43t43 16h39q27 0 42 -16.5t15 -42.5v-789q0 -10 3 -15t18 -5q27 0 42 -16.5t15 -43.5v-39q0 -57 -57 -57h-21q-72 0 -113.5 35t-41.5 112z" />
<glyph unicode="&#xe41;" horiz-adv-x="718" d="M113 147v818q0 27 16 43t43 16h39q27 0 42 -16.5t15 -42.5v-789q0 -10 3 -15t18 -5q27 0 42 -16.5t15 -43.5v-39q0 -57 -57 -57h-21q-72 0 -113.5 35t-41.5 112zM455 147v818q0 27 16 43t43 16h39q27 0 42 -16.5t15 -42.5v-789q0 -10 3 -15t18 -5q27 0 42 -16.5t15 -43.5 v-39q0 -57 -57 -57h-21q-72 0 -113.5 35t-41.5 112z" />
<glyph unicode="&#xe42;" horiz-adv-x="325" d="M-66 1559q0 47 35 81.5t82 34.5l281 -12q31 -2 48 11.5t30 31.5q14 23 37.5 28t44.5 -12l24 -18q20 -16 18 -37.5t-10 -38.5q-25 -45 -84 -76.5t-131 -27.5l-110 4q33 -23 49 -66t16 -78v-1208q0 -10 3 -15t18 -5q27 0 42 -16.5t15 -43.5v-39q0 -57 -57 -57h-21 q-72 0 -113.5 35t-41.5 112v1237q0 25 -16.5 41.5t-41.5 16.5q-47 0 -82 34.5t-35 82.5z" />
<glyph unicode="&#xe43;" horiz-adv-x="366" d="M-68 1527.5q-6 22.5 9 45.5q35 53 98 89t141 36q129 0 193.5 -72t64.5 -180q0 -55 -24.5 -93t-53 -69t-53 -61.5t-24.5 -71.5v-975q0 -10 3 -15t17 -5q27 0 42 -16.5t15 -43.5v-39q0 -57 -57 -57h-20q-72 0 -114 35t-42 112v1006q0 70 33 115t67 82q20 23 38 46t18 50 q0 41 -25 68.5t-78 27.5q-35 0 -63.5 -14.5t-42.5 -36.5q-31 -49 -80 -21l-35 25h2q-23 10 -29 32.5z" />
<glyph unicode="&#xe44;" horiz-adv-x="366" d="M-66 1602v47q0 39 17.5 46t46.5 3q14 -4 34.5 -8t43.5 -11q23 -8 51 -14q59 8 121.5 16.5t122.5 16.5q29 4 46 -13.5t17 -44.5v-38q0 -29 -24 -48q-33 -41 -63 -67.5t-64 -67.5v-1243q0 -10 3 -15t17 -5q27 0 42 -16.5t15 -43.5v-39q0 -57 -57 -57h-20q-72 0 -114 35 t-42 112v1315l92 78l-98 -31q-27 6 -51 15q-23 6 -45.5 10t-38.5 8q-51 6 -52 60z" />
<glyph unicode="&#xe45;" horiz-adv-x="776" d="M28.5 790.5q-8.5 20.5 0.5 45.5q39 98 123 153t194 55q72 0 133.5 -23.5t107.5 -67.5t71.5 -104.5t25.5 -133.5v-1004q0 -27 -15.5 -43t-41.5 -16h-39q-27 0 -43.5 16.5t-16.5 42.5v1004q0 78 -51 127t-131 49q-61 0 -105 -29t-67 -80q-8 -23 -27.5 -33t-46.5 1l-34 10 q-29 10 -37.5 30.5z" />
<glyph unicode="&#xe46;" horiz-adv-x="743" d="M31 745q0 51 15 100.5t45 87.5t73 63.5t98 31.5l88 -86l86 86q104 -35 159.5 -106.5t55.5 -176.5v-815q0 -74 -34 -132t-89 -99q-16 -12 -38.5 -11t-38.5 23l-29 31q-16 23 -11 46.5t27 37.5q27 16 42.5 44t15.5 60v815q0 31 -15.5 61t-44.5 38l-94 -96l-100 96 q-35 -10 -45.5 -38t-10.5 -61q0 -57 -59 -57h-37q-27 0 -43 15.5t-16 41.5z" />
<glyph unicode="&#xe47;" d="M-735 1378q0 45 17.5 85t47 70t69.5 47t85 17h227q27 0 34 12.5t28 12.5q18 0 34 -10l29 -21q20 -16 19.5 -42.5t-13.5 -45.5q-23 -27 -46 -37t-72 -10h-240q-31 0 -53.5 -19.5t-22.5 -47.5q0 -35 14.5 -52.5t40.5 -27.5q33 29 70 59.5t61 50.5l164 -143 q16 -12 17.5 -32.5t-17.5 -43.5l-18 -22q-16 -20 -38 -18t-38 16q-18 16 -35.5 31.5t-36.5 31.5q-25 -20 -50 -41.5t-48 -38.5q-98 4 -163.5 66.5t-65.5 152.5z" />
<glyph unicode="&#xe48;" d="M-227 1511v156q0 57 53 57h27q55 0 55 -57v-156q0 -57 -55 -57h-27q-53 0 -53 57z" />
<glyph unicode="&#xe49;" d="M-335.5 1612.5q-0.5 19.5 16.5 36.5l18 20q16 14 35.5 14t36.5 -14l32 -37q18 20 36 38l36 36q35 31 70 0l20 -20q14 -14 14.5 -35t-16.5 -35l-164 -160l-118 121q-16 16 -16.5 35.5z" />
<glyph unicode="&#xe4a;" d="M-459 1489q-25 20 0 55l119 176l57 -80l60 76l59 -76q2 2 7 9.5t12 13.5q8 8 14 16q18 23 35.5 20t40.5 -20l16 -12q20 -16 18 -31.5t-12 -31.5l-108 -142l-58 80l-63 -80l-55 76l-41 -59q-14 -20 -33 -24.5t-35 9.5z" />
<glyph unicode="&#xe4b;" d="M-281 1569v28q0 23 13.5 33t36.5 10h22v21q0 47 43 47h27q43 0 43 -47v-21h22q23 0 36 -10t13 -33v-28q0 -23 -13 -33t-36 -10h-22v-23q0 -49 -43 -49h-27q-43 0 -43 49v23h-22q-23 0 -36.5 10t-13.5 33z" />
<glyph unicode="&#xe4c;" d="M-383 1444v29q0 72 34 100.5t93 30.5h236q12 0 22 12q12 16 23.5 16t27.5 -10l39 -31q14 -12 11 -27.5t-15 -31.5q-16 -23 -39.5 -40t-64.5 -17h-205q-18 0 -24.5 -8.5t-6.5 -22.5q0 -23 -13.5 -36t-35.5 -13h-33q-23 0 -36 13t-13 36z" />
<glyph unicode="&#xe4d;" d="M-319 1266q0 53 36.5 90t89.5 37t89 -37t36 -90t-35.5 -89t-89.5 -36q-53 0 -89.5 36t-36.5 89zM-238 1266q0 -18 13.5 -31.5t31.5 -13.5t32 13t14 32q0 18 -13.5 31.5t-32.5 13.5q-18 0 -31.5 -13.5t-13.5 -31.5z" />
<glyph unicode="&#xe4e;" d="M-449 1300q0 53 33 90t80 54q-18 6 -31.5 30.5t-13.5 43.5q0 37 17.5 63.5t46 45t66.5 26.5t79 8t102.5 -17.5t100.5 -48.5q27 -18 27.5 -34.5t-9.5 -34.5l-12 -23q-8 -16 -31.5 -21t-50.5 13q-23 14 -57.5 27.5t-69.5 13.5q-27 0 -43 -10t-16 -25q0 -16 10 -22.5 t14 -8.5q23 -6 36 -10t13 -33v-24q0 -27 -15 -33t-42 -6q-31 -2 -60.5 -13.5t-29.5 -41.5q0 -20 18.5 -33.5t40.5 -13.5q49 0 74 24q33 33 63 6l25 -22q33 -39 -10 -80q-33 -29 -73 -41t-87 -12q-31 0 -64.5 8t-62.5 26.5t-48.5 50t-19.5 78.5z" />
<glyph unicode="&#xe4f;" horiz-adv-x="1064" d="M102 504q0 94 36 176t97.5 143.5t143.5 96t174 34.5q90 0 172 -33.5t143.5 -94t98.5 -143.5t37 -179q0 -94 -35 -176t-96.5 -142.5t-143.5 -95.5t-176 -35q-92 0 -174 35t-143.5 96.5t-97.5 143.5t-36 174zM242 504q0 -63 23.5 -118.5t65.5 -97.5t98 -66.5t124 -24.5 t124 24.5t97 66.5t64.5 97.5t23.5 118.5t-24.5 120.5t-66.5 99.5t-98.5 66.5t-119.5 24.5q-66 0 -122 -24.5t-98 -66.5t-66.5 -99.5t-24.5 -120.5zM303 504q0 109 69.5 181.5t180.5 72.5q53 0 100 -19.5t82 -53.5t54.5 -81t19.5 -100t-19.5 -98.5t-54.5 -79t-82 -53 t-100 -19.5q-55 0 -100 19.5t-79 53t-52.5 79t-18.5 98.5z" />
<glyph unicode="&#xe50;" horiz-adv-x="950" d="M113 442q0 102 13 195.5t53 163t115 110.5t198 41q121 0 195.5 -41t114.5 -110.5t53 -162.5t13 -196q0 -213 -88 -335.5t-288 -122.5q-102 0 -174 31.5t-117 91t-66.5 144.5t-21.5 191zM268 442q0 -141 52.5 -222t171.5 -81q117 0 169 81t52 222q0 74 -8.5 138.5 t-32 112.5t-67.5 76t-113 28q-74 0 -118 -28t-67.5 -76t-31 -112.5t-7.5 -138.5z" />
<glyph unicode="&#xe51;" horiz-adv-x="964" d="M102 575q0 109 32 180.5t85 114.5t123 61.5t147 18.5q111 0 186 -35.5t121 -95t66.5 -139.5t20.5 -166q0 -117 -36 -212t-100.5 -162.5t-157.5 -103.5t-206 -36q-27 0 -43 15.5t-16 41.5v39q0 27 16 43.5t43 16.5q170 0 257 97t87 261q0 129 -57.5 205t-186.5 76 q-45 0 -86 -10.5t-71.5 -36t-49 -67.5t-18.5 -106q0 -45 15.5 -76.5t38 -51t51 -27.5t53.5 -8q16 0 49 8t53 31q16 18 33.5 20t36.5 -8l43 -25q29 -16 28.5 -36.5t-16.5 -43.5q-23 -31 -54.5 -50t-64 -31.5t-61.5 -16.5t-47 -4q-51 0 -106.5 16.5t-101.5 54.5t-76 98 t-30 150z" />
<glyph unicode="&#xe52;" horiz-adv-x="985" d="M51 1030v39q0 57 58 57q92 0 133 -39.5t41 -134.5v-667q0 -41 19.5 -69t52 -44t74.5 -24.5t87 -8.5t86 8.5t74 24.5t52.5 44t19.5 69v383q0 61 -41 90l-107 -107l-111 109q-37 -33 -36 -92q0 -27 -15.5 -43.5t-42.5 -16.5h-39q-27 0 -42 16.5t-15 43.5q0 102 59.5 173.5 t161.5 106.5l80 -80l80 80q102 -35 162.5 -106.5t60.5 -173.5v-383q0 -80 -32.5 -137.5t-86 -93.5t-123 -53t-145.5 -17t-146.5 17t-123.5 53t-86 93.5t-33 137.5v667q0 20 -18 21q-57 0 -58 57z" />
<glyph unicode="&#xe53;" horiz-adv-x="1038" d="M133 174v543q0 51 19.5 94t52.5 73.5t77 48t93 17.5q47 0 90 -16t76 -43q33 27 75.5 43t88.5 16q51 0 95 -17.5t76.5 -48t51 -73.5t18.5 -94v-660q0 -57 -57 -57h-39q-57 0 -57 57v660q0 35 -26 56.5t-62 21.5q-35 0 -61 -21.5t-26 -56.5v-561q0 -27 -16 -43.5t-43 -16.5 h-39q-27 0 -42 16.5t-15 43.5v561q0 35 -25.5 56.5t-62.5 21.5q-35 0 -60.5 -21.5t-25.5 -56.5v-543q0 -18 18 -18q27 0 43.5 -16.5t16.5 -43.5v-39q0 -27 -16.5 -42t-43.5 -15q-92 0 -133 41t-41 133z" />
<glyph unicode="&#xe54;" horiz-adv-x="1071" d="M109 471q0 100 31.5 186t89 149.5t135 99.5t167.5 36h226q45 0 71.5 18.5t40.5 43.5q14 23 38 26.5t46 -8.5l37 -31q16 -16 18.5 -39.5t-12.5 -40.5q-41 -57 -96 -91t-143 -34h-226q-57 0 -106 -23.5t-85 -65.5t-56.5 -100t-20.5 -126q0 -66 19.5 -123t53.5 -99t81 -66.5 t102 -26.5q-33 59 -33 135q0 61 25 114.5t66 94.5q16 16 38.5 16t38.5 -10v2l31 -27q53 -45 0 -88q-20 -20 -32.5 -47t-12.5 -55q0 -55 39 -93t92 -42h102q27 0 42.5 -16.5t15.5 -43.5v-39q0 -57 -58 -57h-342q-90 0 -167.5 36t-135 99.5t-89 149.5t-31.5 186z" />
<glyph unicode="&#xe55;" horiz-adv-x="1071" d="M109 471q0 92 26.5 171t73.5 140q-23 16 -45.5 44t-32.5 55q-6 18 -6 37.5t25 35.5l43 29q29 18 47 10t30 -37q8 -16 25.5 -38.5t40.5 -26.5q90 51 196 51h226q45 0 71.5 18.5t40.5 43.5q14 23 38 26.5t46 -8.5l37 -31q16 -16 18.5 -39.5t-12.5 -40.5q-41 -57 -96 -91 t-143 -34h-226q-57 0 -106 -23.5t-85 -65.5t-56.5 -100t-20.5 -126q0 -66 19.5 -123t53.5 -99t81 -66.5t102 -26.5q-33 59 -33 135q0 61 25 114.5t66 94.5q16 16 38.5 16t38.5 -10v2l31 -27q53 -45 0 -88q-20 -20 -32.5 -47t-12.5 -55q0 -55 39 -93t92 -42h102 q27 0 42.5 -16.5t15.5 -43.5v-39q0 -57 -58 -57h-342q-90 0 -167.5 36t-135 99.5t-89 149.5t-31.5 186z" />
<glyph unicode="&#xe56;" horiz-adv-x="935" d="M36.5 906.5q-9.5 21.5 0.5 41.5l12 53q6 23 25.5 30t44.5 3q66 -23 104.5 -61.5t65.5 -77.5q35 23 83 40t105 17q100 0 173 -36.5t120 -99t70.5 -147.5t23.5 -180q0 -80 -17.5 -169t-62.5 -164.5t-119.5 -124.5t-187.5 -49q-104 0 -192 63q-20 16 -23.5 34.5t14.5 41.5 l29 37q39 47 78 4q14 -14 36.5 -19.5t51.5 -5.5q70 0 116 33t73.5 84t39 112.5t11.5 120.5q0 63 -14.5 121t-43 99t-72.5 65.5t-104 24.5q-61 0 -101 -23.5t-81 -79.5q-12 -18 -26.5 -22t-27 0t-22.5 13t-14 20q-23 53 -54.5 103t-84.5 71q-20 6 -29.5 27.5z" />
<glyph unicode="&#xe57;" horiz-adv-x="1042" d="M123 174v543q0 51 19.5 94t52 73.5t76.5 48t94 17.5q47 0 90 -16t75 -43q33 27 76 43t88 16q92 0 160 -55q29 10 41 42t12 69q0 27 16.5 43t43.5 16h37q27 0 43 -16.5t16 -42.5q0 -86 -31 -149.5t-100 -92.5q4 -12 4 -23.5v-23.5v-660q0 -57 -57 -57h-39q-57 0 -58 57 v660q0 35 -25.5 56.5t-62.5 21.5q-35 0 -60.5 -19.5t-25.5 -52.5v-303q0 -27 -16.5 -43.5t-42.5 -16.5h-39q-27 0 -42 16.5t-15 43.5v297q0 35 -26 56.5t-62 21.5q-35 0 -60.5 -21.5t-25.5 -56.5v-543q0 -18 18 -18q27 0 43 -16.5t16 -43.5v-39q0 -27 -16 -42t-43 -15 q-92 0 -133 41t-41 133z" />
<glyph unicode="&#xe58;" horiz-adv-x="1083" d="M109 471q0 100 25.5 186t74.5 149.5t120.5 99.5t164.5 36h272q39 0 70 20.5t47 45.5q14 23 37.5 27.5t46.5 -7.5l37 -31q16 -16 18 -39.5t-12 -39.5q-41 -57 -102.5 -94.5t-141.5 -37.5h-272q-111 0 -168.5 -89t-57.5 -226q0 -109 39 -189.5t107 -115.5l153 182l150 -166 q82 59 82 172q0 57 57 58h39q27 0 43 -15.5t16 -42.5q0 -61 -20.5 -117.5t-57 -103.5t-88 -83t-112.5 -56l-101 115l-6 6l-98 -117q-86 10 -152.5 50t-113.5 101.5t-71.5 143.5t-24.5 178z" />
<glyph unicode="&#xe59;" horiz-adv-x="968" d="M133 750q0 92 50 146t149 54q43 0 73.5 -9t57.5 -28q25 18 59.5 27.5t71.5 9.5h131q39 0 69 20.5t46 45.5q12 23 36.5 28t47.5 -8l37 -30q16 -16 18 -40t-12 -40q-41 -57 -102.5 -94t-139.5 -37h-131q-10 0 -22.5 -5.5t-6.5 -21.5l4 -8t9.5 -23.5l22.5 -58.5t45 -114 t74 -190.5t111 -285.5q8 -27 0 -46t-36 -28l-37 -14q-55 -18 -72 33l-231 598q-25 61 -51.5 112.5t-71.5 51.5q-39 0 -43 -41l16 -443q4 -84 38 -115.5t75 -45.5q23 -8 33 -31t0 -49l-21 -43q-14 -25 -33.5 -29t-36.5 4q-39 14 -74.5 32.5t-65.5 51.5t-48 85t-22 136z" />
<glyph unicode="&#xe5a;" horiz-adv-x="1103" d="M31 948q0 57 57 58h39q57 0 57 -58q0 -41 15.5 -75.5t42 -61.5t61.5 -42t76 -15q39 0 73.5 14t61.5 41t43 62.5t16 76.5q0 57 58 58h39q57 0 57 -58v-715q0 -74 -33 -133t-88 -98q-18 -14 -40.5 -12t-39.5 24l-26 31q-18 23 -13 46.5t27 35.5q27 18 43 46t16 60v424 q-43 -29 -92 -43t-102 -14q-72 0 -135.5 27.5t-110.5 75t-74.5 111t-27.5 134.5zM771 91.5q5 23.5 28 35.5q27 18 43 46t16 60v713q0 57 57 58h39q57 0 58 -58v-713q0 -74 -33 -133t-88 -98q-18 -14 -41 -12t-39 24l-27 31q-18 23 -13 46.5z" />
<glyph unicode="&#x2000;" horiz-adv-x="867" />
<glyph unicode="&#x2001;" horiz-adv-x="1735" />
<glyph unicode="&#x2002;" horiz-adv-x="867" />
<glyph unicode="&#x2003;" horiz-adv-x="1735" />
<glyph unicode="&#x2004;" horiz-adv-x="578" />
<glyph unicode="&#x2005;" horiz-adv-x="433" />
<glyph unicode="&#x2006;" horiz-adv-x="289" />
<glyph unicode="&#x2007;" horiz-adv-x="289" />
<glyph unicode="&#x2008;" horiz-adv-x="216" />
<glyph unicode="&#x2009;" horiz-adv-x="347" />
<glyph unicode="&#x200a;" horiz-adv-x="96" />
<glyph unicode="&#x2010;" horiz-adv-x="999" d="M133 506v43q0 57 57 57h660q57 0 57 -57v-43q0 -57 -57 -57h-660q-57 0 -57 57z" />
<glyph unicode="&#x2011;" horiz-adv-x="999" d="M133 506v43q0 57 57 57h660q57 0 57 -57v-43q0 -57 -57 -57h-660q-57 0 -57 57z" />
<glyph unicode="&#x2012;" horiz-adv-x="999" d="M133 506v43q0 57 57 57h660q57 0 57 -57v-43q0 -57 -57 -57h-660q-57 0 -57 57z" />
<glyph unicode="&#x2013;" horiz-adv-x="702" d="M41 498v43q0 57 57 57h486q57 0 57 -57v-43q0 -57 -57 -58h-486q-57 0 -57 58z" />
<glyph unicode="&#x2014;" horiz-adv-x="1110" d="M41 498v43q0 57 57 57h891q27 0 43.5 -15.5t16.5 -41.5v-43q0 -27 -16.5 -42.5t-43.5 -15.5h-891q-57 0 -57 58z" />
<glyph unicode="&#x2018;" horiz-adv-x="319" d="M72 985l84 303q12 49 59 49h29q29 0 46 -16t11 -41l-84 -301q-12 -49 -59 -49h-31q-29 0 -44 14t-11 41z" />
<glyph unicode="&#x2019;" horiz-adv-x="350" d="M53 985l84 303q12 49 60 49h28q29 0 46.5 -16t11.5 -41l-84 -301q-12 -49 -60 -49h-30q-29 0 -44.5 14t-11.5 41z" />
<glyph unicode="&#x2022;" horiz-adv-x="466" d="M82 489q0 68 47 116t115 48q66 0 114 -48t48 -116q0 -66 -48.5 -112.5t-113.5 -46.5q-68 0 -115 46.5t-47 112.5z" />
<glyph unicode="&#x2026;" horiz-adv-x="890" d="M51 88q0 39 26.5 66.5t65.5 27.5t67 -27.5t28 -66.5t-28 -65.5t-67 -26.5t-65.5 26.5t-26.5 65.5zM348 88q0 39 26.5 66.5t65.5 27.5t67 -27.5t28 -66.5t-28 -65.5t-67 -26.5t-65.5 26.5t-26.5 65.5zM643 88q0 39 26.5 66.5t65.5 27.5t66.5 -27.5t27.5 -66.5t-27.5 -65.5 t-66.5 -26.5t-65.5 26.5t-26.5 65.5z" />
<glyph unicode="&#x202f;" horiz-adv-x="347" />
<glyph unicode="&#x205f;" horiz-adv-x="433" />
<glyph unicode="&#x20ac;" horiz-adv-x="1085" d="M35 551l10 41q8 23 25.5 36t40.5 13h65v37h-39q-72 0 -49 67l12 43q8 23 25.5 36.5t38.5 13.5h12v120q0 82 35 155t95.5 126t139 85t166.5 32q139 0 248 -60.5t156 -169.5q12 -29 6 -44t-31 -31l-35 -23q-23 -12 -46 -5t-33 30q-18 31 -46 57.5t-64 47t-76 31.5t-79 11 q-53 0 -104 -18.5t-91 -51t-63.5 -76.5t-23.5 -96v-120h508q37 0 48 -18.5t1 -49.5l-13 -45q-8 -23 -25.5 -35t-37.5 -12h-481v-37h454q66 0 47 -68l-10 -45q-8 -23 -25.5 -34t-39.5 -11h-426v-96q0 -49 23.5 -93t63.5 -77t91 -52.5t104 -19.5q86 0 152.5 48.5t95.5 123.5 q16 55 72 37l37 -14q25 -6 38 -22.5t-1 -51.5q-27 -59 -66 -109.5t-89 -87t-110.5 -58t-128.5 -21.5q-84 0 -161.5 31.5t-139 85t-98.5 126t-37 154.5v96h-94q-66 0 -47 68z" />
<glyph unicode="&#x2260;" horiz-adv-x="999" d="M133 371v41q0 59 57 59h226l22 84h-248q-57 0 -57 57v43q0 57 57 58h291l51 188q12 49 60 49h39q29 0 44 -16t11 -41l-47 -180h211q57 0 57 -58v-43q0 -57 -57 -57h-256l-23 -84h279q57 0 57 -59v-41q0 -27 -15 -43.5t-42 -16.5h-320l-51 -186q-12 -47 -59 -47h-39 q-29 0 -44 14t-11 39l47 180h-183q-27 0 -42 16.5t-15 43.5z" />
<glyph unicode="&#x2264;" horiz-adv-x="989" d="M123 125v43q0 57 57 57h660q57 0 57 -57v-43q0 -57 -57 -57h-660q-57 0 -57 57zM123 608v45q0 37 31 52l669 315q31 14 52.5 1t21.5 -48v-53q0 -16 -5 -27.5t-26 -22.5l-508 -239q125 -57 255 -117.5t253 -120.5q18 -10 24.5 -19t6.5 -32v-51q0 -35 -20.5 -49.5 t-53.5 2.5l-667 311q-33 14 -33 53z" />
<glyph unicode="&#x2265;" horiz-adv-x="989" d="M133 125v43q0 57 57 57h660q57 0 57 -57v-43q0 -57 -57 -57h-660q-57 0 -57 57zM133 291v51q0 23 6 32t25 19q123 59 253 119.5t255 118.5l-508 239q-20 10 -25.5 21.5t-5.5 28.5v53q0 35 21.5 48t52.5 -1l670 -315q31 -14 30 -52v-45q0 -39 -33 -53l-667 -311 q-33 -16 -53.5 -2t-20.5 49z" />
<glyph unicode="&#x25cc;" horiz-adv-x="980" d="M102 535q0 39 27 65.5t66 26.5t65.5 -27t26.5 -65q0 -39 -27 -66t-65 -27q-39 0 -66 27t-27 66zM170 311q0 39 26.5 65.5t65.5 26.5t65.5 -26.5t26.5 -65.5t-26.5 -65.5t-65.5 -26.5t-65.5 26.5t-26.5 65.5zM172 764q0 39 26.5 65.5t65.5 26.5t65.5 -26.5t26.5 -65.5 t-26.5 -65.5t-65.5 -26.5t-65.5 26.5t-26.5 65.5zM418 215q0 39 26.5 65.5t65.5 26.5t65.5 -26.5t26.5 -65.5t-26.5 -65.5t-65.5 -26.5t-65.5 26.5t-26.5 65.5zM420 891q0 39 26.5 65.5t65.5 26.5t65.5 -26.5t26.5 -65.5t-26.5 -65.5t-65.5 -26.5t-65.5 26.5t-26.5 65.5z M662 764q0 39 26.5 65.5t65.5 26.5t65.5 -26.5t26.5 -65.5t-26.5 -65.5t-65.5 -26.5t-65.5 26.5t-26.5 65.5zM664 311q0 39 26.5 65.5t65.5 26.5t65.5 -26.5t26.5 -65.5t-26.5 -65.5t-65.5 -26.5t-65.5 26.5t-26.5 65.5zM735 535q0 39 26.5 65.5t65.5 26.5t66 -27t27 -65 q0 -39 -27 -66t-66 -27t-65.5 27t-26.5 66z" />
<glyph unicode="&#x25fc;" horiz-adv-x="1024" d="M0 0v1024h1024v-1024h-1024z" />
<glyph unicode="&#xf700;" horiz-adv-x="825" d="M74 883q-31 45 18 80q51 39 127 55t154 16h198q33 0 62 16.5t45 39.5q14 23 32.5 33t49.5 -17l35 -31q16 -16 18 -38.5t-10 -39.5q-27 -35 -55.5 -59.5t-67.5 -40.5q29 -37 44 -85t15 -107v-648q0 -27 -16 -42t-43 -15h-37q-27 0 -43 15.5t-16 41.5v260 q-4 78 -59.5 132.5t-133.5 54.5q-27 0 -43 15.5t-16 41.5v39q0 27 16.5 43t42.5 16q111 0 193 -65v111q0 86 -57.5 127.5t-155.5 46.5q-53 0 -105.5 -9.5t-79.5 -33.5q-23 -23 -45 -17t-39 27z" />
<glyph unicode="&#xf701;" d="M-852 1225v47q0 27 16.5 42t42.5 15h521q57 0 57 -57v-47q0 -57 -57 -58h-521q-27 0 -43 15.5t-16 42.5z" />
<glyph unicode="&#xf702;" d="M-852 1225v32q0 27 16.5 42.5t42.5 15.5h435v55q0 57 57 57h29q57 0 57 -57v-145q0 -57 -57 -58h-521q-27 0 -43 15.5t-16 42.5z" />
<glyph unicode="&#xf703;" d="M-852 1225v32q0 57 57 58h338q6 49 44 82t87 33q53 0 92 -39t39 -93q0 -53 -38.5 -92t-92.5 -39h-469q-57 0 -57 58z" />
<glyph unicode="&#xf704;" d="M-852 1225v32q0 27 16.5 42.5t42.5 15.5h242v55q0 57 57 57h29q27 0 43 -15t16 -42v-55h48v55q0 57 57 57h29q57 0 57 -57v-145q0 -57 -57 -58h-521q-27 0 -43 15.5t-16 42.5z" />
<glyph unicode="&#xf705;" d="M-506 1196v197q0 23 13.5 36t35.5 13h39q23 0 36 -13.5t13 -35.5v-197q0 -23 -13 -36t-36 -13h-39q-23 0 -36 13.5t-13 35.5z" />
<glyph unicode="&#xf706;" d="M-604 1319.5q0 19.5 16 36.5l25 24q16 16 35.5 16.5t35.5 -16.5l39 -43l107 105q14 16 34.5 16t35.5 -16l26 -25q14 -16 14 -35.5t-14 -35.5l-203 -199l-135 137q-16 16 -16 35.5z" />
<glyph unicode="&#xf707;" d="M-707 1208q-29 25 0 60l144 184l74 -84l69 76l68 -70l26 31q31 31 74 -2l23 -19q29 -29 4 -63l-125 -154l-76 88l-68 -79l-65 73l-47 -61q-14 -16 -33.5 -19.5t-34.5 11.5q-16 16 -33 28z" />
<glyph unicode="&#xf708;" d="M-580 1274v39q0 49 50 49h28v31q0 23 13.5 36t35.5 13h39q23 0 36 -13.5t13 -35.5v-31h29q49 0 49 -49v-39q0 -23 -13 -36t-36 -13h-29v-29q0 -23 -13 -36t-36 -13h-39q-23 0 -36 13.5t-13 35.5v29h-28q-23 0 -36.5 13t-13.5 36z" />
<glyph unicode="&#xf709;" d="M-530 1278q0 92 37.5 131t130.5 39h262q20 0 32 16q14 16 32 19.5t34 -15.5l37 -32q16 -16 12 -31.5t-14 -30.5q-23 -27 -51.5 -45t-77.5 -18h-266q-18 0 -24.5 -9.5t-6.5 -23.5q0 -23 -13.5 -36t-35.5 -13h-39q-23 0 -36 13t-13 36z" />
<glyph unicode="&#xf70a;" d="M-444 1196v197q0 23 13 36t36 13h39q23 0 36 -13.5t13 -35.5v-197q0 -23 -13.5 -36t-35.5 -13h-39q-23 0 -36 13.5t-13 35.5z" />
<glyph unicode="&#xf70b;" d="M-542.5 1319.5q-0.5 19.5 16.5 36.5l24 24q16 16 36 16.5t36 -16.5l39 -43l106 105q14 16 35 16t35 -16l27 -25q14 -16 14 -35.5t-14 -35.5l-203 -199l-135 137q-16 16 -16.5 35.5z" />
<glyph unicode="&#xf70c;" d="M-645 1208q-29 25 0 60l143 184l74 -84l70 76l67 -70l27 31q31 31 74 -2l22 -19q29 -29 4 -63l-125 -154l-76 88l-67 -79l-66 73l-47 -61q-14 -16 -33.5 -19.5t-33.5 11.5q-16 16 -33 28z" />
<glyph unicode="&#xf70d;" d="M-518 1274v39q0 49 49 49h29v31q0 23 13 36t36 13h39q23 0 36 -13.5t13 -35.5v-31h29q49 0 49 -49v-39q0 -23 -13.5 -36t-35.5 -13h-29v-29q0 -23 -13.5 -36t-35.5 -13h-39q-23 0 -36 13.5t-13 35.5v29h-29q-23 0 -36 13t-13 36z" />
<glyph unicode="&#xf70e;" d="M-530 1278q0 92 37.5 131t130.5 39h262q20 0 32 16q14 16 32 19.5t34 -15.5l37 -32q16 -16 12 -31.5t-14 -30.5q-23 -27 -51.5 -45t-77.5 -18h-266q-18 0 -24.5 -9.5t-6.5 -23.5q0 -23 -13.5 -36t-35.5 -13h-39q-23 0 -36 13t-13 36z" />
<glyph unicode="&#xf70f;" horiz-adv-x="1351" d="M90 745q29 156 125 227.5t270 71.5q80 0 147.5 -20t117 -62t77 -103.5t27.5 -143.5v-252q0 -49 36 -68.5t89 -19.5t89 19.5t36 68.5v502q0 27 15.5 43t41.5 16h39q27 0 43.5 -16.5t16.5 -42.5v-734q0 -59 -23 -104t-60.5 -76t-89 -46t-108.5 -15q-72 0 -135.5 24.5 t-98.5 71.5q-16 20 -11 44t28 40l29 20q23 16 45 11.5t34 -25.5q16 -16 45 -24.5t64 -8.5q53 0 89 20.5t36 67.5v11q-57 -23 -125 -23q-59 0 -109.5 15.5t-89.5 46t-60.5 76.5t-21.5 106v252q0 90 -58 133t-155 43q-92 0 -147 -28.5t-80 -94.5q33 -35 33 -106v-488 q0 -18 18 -18h21q27 0 42 -16.5t15 -43.5v-39q0 -57 -57 -57h-21q-92 0 -133 41t-41 133v514q0 14 -6 29.5t-39 27.5z" />
<glyph unicode="&#xf710;" d="M-559 1327q0 57 57 57h43q27 0 43.5 -15t16.5 -42q0 -14 10 -14h455q57 0 57 -58v-38q0 -57 -57 -58h-455q-100 0 -135 36t-35 132z" />
<glyph unicode="&#xf711;" d="M-475 1266q0 53 37 90t90 37t89 -37t36 -90t-36 -89t-89 -36t-90 36t-37 89zM-393 1266q0 -18 13 -31.5t32 -13.5q18 0 31.5 13t13.5 32q0 18 -13.5 31.5t-31.5 13.5t-31.5 -13.5t-13.5 -31.5z" />
<glyph unicode="&#xf712;" d="M-756 1378q0 45 17.5 85t47 70t69.5 47t85 17h228q27 0 34 12.5t27 12.5q18 0 35 -10l29 -21q20 -16 19 -42.5t-13 -45.5q-23 -27 -46.5 -37t-72.5 -10h-240q-31 0 -53 -19.5t-22 -47.5q0 -35 14 -52.5t41 -27.5q33 29 69.5 59.5t61.5 50.5l164 -143q16 -12 17 -32.5 t-17 -43.5l-19 -22q-16 -20 -37.5 -18t-37.5 16q-18 16 -36 31.5t-36 31.5q-25 -20 -50.5 -41.5t-47.5 -38.5q-98 4 -164 66.5t-66 152.5z" />
<glyph unicode="&#xf713;" d="M-350 1511v156q0 57 53 57h27q55 0 55 -57v-156q0 -57 -55 -57h-27q-53 0 -53 57z" />
<glyph unicode="&#xf714;" d="M-458.5 1612.5q-0.5 19.5 16.5 36.5l18 20q16 14 35.5 14t36.5 -14l33 -37q18 20 35.5 38t35.5 36q35 31 70 0l20 -20q14 -14 14.5 -35t-16.5 -35l-164 -160l-118 121q-16 16 -16.5 35.5z" />
<glyph unicode="&#xf715;" d="M-582 1489q-25 20 0 55l119 176l57 -80l60 76l59 -76q2 2 7.5 9.5t11.5 13.5q8 8 14 16q18 23 35.5 20t40.5 -20l16 -12q20 -16 18.5 -31.5t-12.5 -31.5l-108 -142l-58 80l-63 -80l-55 76l-41 -59q-14 -20 -32.5 -24.5t-35.5 9.5z" />
<glyph unicode="&#xf716;" d="M-403 1569v28q0 23 13 33t36 10h22v21q0 47 43 47h27q43 0 43 -47v-21h22q23 0 36.5 -10t13.5 -33v-28q0 -23 -13.5 -33t-36.5 -10h-22v-23q0 -49 -43 -49h-27q-43 0 -43 49v23h-22q-23 0 -36 10t-13 33z" />
<glyph unicode="&#xf717;" d="M-492 1444v29q0 72 34 100.5t93 30.5h236q12 0 23 12q12 16 23 16t28 -10l39 -31q14 -12 11 -27.5t-15 -31.5q-16 -23 -40 -40t-65 -17h-205q-18 0 -24 -8.5t-6 -22.5q0 -23 -13.5 -36t-36.5 -13h-32q-23 0 -36.5 13t-13.5 36z" />
<glyph unicode="&#xf718;" d="M-319 -436q0 57 57 57h29q49 0 75.5 -9t39 -27.5t14.5 -44t2 -56.5v-82q0 -57 -52 -57h-36q-51 0 -52 57v43q0 10 -3 15t-17 5q-27 0 -42 16.5t-15 43.5v39z" />
<glyph unicode="&#xf719;" d="M-510 -436q0 57 57 57h29q49 0 74.5 -9t37 -27.5t12.5 -44t1 -56.5v-43q2 -4 10 -6t17 -2q8 0 16 2t8 6v123q0 57 58 57h30q57 0 58 -57v-142q0 -39 -12.5 -62.5t-34 -35.5t-51 -15t-66.5 -3q-74 0 -120 19.5t-46 96.5v23q0 10 -3 15t-18 5q-27 0 -42 16.5t-15 43.5v39z " />
<glyph unicode="&#xf71a;" d="M-246 -461q0 39 26.5 65.5t65.5 26.5t66 -26.5t27 -65.5t-27 -65.5t-66 -26.5t-65.5 26.5t-26.5 65.5z" />
<glyph unicode="&#xf71d;" horiz-adv-x="1019" d="M51 928v37q0 27 15.5 43t42.5 16q94 0 134 -41t40 -133v-371l196 490q6 12 12.5 22t32.5 10q27 0 33 -10t12 -22l199 -492v289q0 43 -20.5 71.5t-61.5 28.5q-57 0 -57 58v39q0 27 15 43t42 16q47 0 67.5 22.5t20.5 63.5q0 27 15.5 43t41.5 16h39q27 0 42.5 -16t15.5 -43 q0 -106 -66 -172q31 -31 45.5 -75t14.5 -95v-709q0 -57 -58 -57h-39q-41 0 -55 39l-246 618l-245 -622q-16 -35 -54 -35h-39q-57 0 -57 57v793q0 18 -20 18q-57 0 -58 60z" />
<glyph unicode="&#xfb00;" horiz-adv-x="1044" d="M72 930v41q0 57 57 57h18v219q0 47 18.5 88t49.5 72t72 49.5t88 18.5h94q57 0 57 -58v-41q0 -57 -57 -57h-94q-31 0 -53.5 -20.5t-22.5 -51.5v-219h356v219q0 47 18.5 88t49.5 72t72 49.5t88 18.5h94q57 0 57 -58v-41q0 -57 -57 -57h-94q-31 0 -53.5 -20.5t-22.5 -51.5 v-219h133q25 0 40 -15.5t15 -41.5v-41q0 -27 -15 -42.5t-40 -15.5h-133v-815q0 -57 -57 -57h-37q-57 0 -58 57v815h-356v-815q0 -57 -57 -57h-37q-57 0 -58 57v815h-18q-57 0 -57 58z" />
<glyph unicode="&#xfb01;" horiz-adv-x="899" d="M72 930v41q0 27 15 42t40 15h20v219q0 47 18.5 88t49.5 72t72 49.5t88 18.5h94q57 0 57 -58v-41q0 -57 -57 -57h-94q-33 0 -54.5 -20.5t-21.5 -51.5v-219h283q45 -2 86 -19.5t71.5 -48t48 -70.5t19.5 -85v-748q0 -57 -57 -57h-39q-25 0 -40.5 15.5t-15.5 41.5v744 q0 31 -22.5 51t-52.5 20h-281v-815q0 -57 -57 -57h-39q-25 0 -40.5 15.5t-15.5 41.5v815h-20q-25 0 -40 15.5t-15 42.5z" />
<glyph unicode="&#xfb02;" horiz-adv-x="956" d="M72 930v41q0 57 57 57h18v219q0 47 18.5 88t49.5 72t72 49.5t88 18.5h375q57 0 57 -58v-1241q0 -10 3 -15t17 -5q27 0 42.5 -16.5t15.5 -43.5v-39q0 -57 -58 -57h-20q-70 0 -111 33t-41 110v1176h-280q-31 0 -53.5 -20.5t-22.5 -51.5v-219h152q57 0 57 -57v-41 q0 -57 -57 -58h-152v-815q0 -57 -57 -57h-37q-57 0 -58 57v815h-18q-57 0 -57 58z" />
<glyph unicode="&#xfb03;" horiz-adv-x="1409" d="M72 930v41q0 57 57 57h18v219q0 47 18.5 88t49.5 72t72 49.5t88 18.5h96q25 0 40 -15.5t15 -42.5v-41q0 -27 -15 -42t-40 -15h-96q-31 0 -53.5 -20.5t-22.5 -51.5v-219h356v219q0 47 18.5 88t49.5 72t73 49.5t89 18.5h94q57 0 57 -58v-41q0 -57 -57 -57h-94 q-33 0 -54.5 -20.5t-21.5 -51.5v-219h278q47 0 89.5 -17.5t73 -48t49 -71.5t18.5 -86v-748q0 -27 -16.5 -42t-40.5 -15h-39q-25 0 -41.5 15.5t-16.5 41.5v748q-2 29 -23.5 47t-49.5 20h-281v-815q0 -27 -16.5 -42t-40.5 -15h-39q-25 0 -41.5 15.5t-16.5 41.5v815h-356v-815 q0 -27 -15.5 -42t-39.5 -15h-39q-57 0 -58 57v815h-18q-57 0 -57 58z" />
<glyph unicode="&#xfb04;" horiz-adv-x="1361" d="M72 930v41q0 57 57 57h18v219q0 47 18.5 88t49.5 72t73 49.5t89 18.5h94q25 0 41 -15.5t16 -42.5v-41q0 -27 -16 -42t-41 -15h-94q-33 0 -55.5 -20.5t-22.5 -51.5v-219h356v219q0 47 18.5 88t49.5 72t72 49.5t88 18.5h377q25 0 40 -15.5t15 -42.5v-1241q0 -10 3 -15 t17 -5q27 0 42.5 -16.5t15.5 -43.5v-39q0 -57 -58 -57h-20q-70 0 -111 33t-41 110v1176h-280q-31 0 -53.5 -20.5t-22.5 -51.5v-219h154q25 0 40 -15.5t15 -41.5v-41q0 -27 -15.5 -42.5t-39.5 -15.5h-154v-815q0 -27 -15.5 -42t-39.5 -15h-39q-57 0 -58 57v815h-356v-815 q0 -27 -15.5 -42t-39.5 -15h-39q-25 0 -41.5 15.5t-16.5 41.5v815h-18q-57 0 -57 58z" />
<glyph horiz-adv-x="759" d="M-471 1251q0 59 41 100.5t98 41.5t99.5 -41t42.5 -101q0 -59 -42 -99t-100 -40q-57 0 -98 40t-41 99zM-369 1251q0 -16 11.5 -27.5t27.5 -11.5t27.5 11.5t11.5 27.5t-11 27.5t-28 11.5q-16 0 -27.5 -11.5t-11.5 -27.5zM12 790.5q-8 20.5 0 45.5q39 98 123 153t195 55 q72 0 133 -23.5t107 -67.5t72 -104.5t26 -133.5v-658q0 -57 -58 -57h-39q-27 0 -43 15.5t-16 41.5v658q0 78 -51 127t-131 49q-61 0 -105.5 -28.5t-66.5 -80.5q-8 -23 -27.5 -33t-46.5 1l-35 10q-29 10 -37 30.5z" />
<glyph d="M-629 1300q0 53 33 90t80 54q-18 6 -31.5 30.5t-13.5 43.5q0 37 17.5 63.5t46 45t66.5 26.5t79 8t102.5 -17.5t99.5 -48.5q27 -18 28 -34.5t-9 -34.5l-12 -23q-8 -16 -32 -21t-50 13q-23 14 -57.5 27.5t-69.5 13.5q-27 0 -43.5 -10t-16.5 -25q0 -16 10.5 -22.5t14.5 -8.5 q23 -6 36 -10t13 -33v-24q0 -27 -15.5 -33t-41.5 -6q-31 -2 -60.5 -13.5t-29.5 -41.5q0 -20 18 -33.5t41 -13.5q49 0 74 24q33 33 63 6l25 -22q33 -39 -10 -80q-33 -29 -73 -41t-87 -12q-31 0 -64.5 8t-62.5 26.5t-48.5 50t-19.5 78.5z" />
<glyph horiz-adv-x="899" d="M72 930v41q0 27 15 42t40 15h20v219q0 47 18.5 88t49.5 72t72 49.5t88 18.5h94q57 0 57 -58v-41q0 -57 -57 -57h-94q-33 0 -54.5 -20.5t-21.5 -51.5v-219h283q45 -2 86 -19.5t71.5 -47t48 -69.5t19.5 -85v-967q0 -39 -15.5 -73.5t-41 -60t-60.5 -40t-74 -14.5h-94 q-27 0 -42 15.5t-15 39.5v43q0 25 15.5 41t41.5 16h94q16 0 27.5 10.5t11.5 26.5v963q-4 27 -25.5 45t-49.5 20h-281v-815q0 -57 -57 -57h-39q-25 0 -40.5 15.5t-15.5 41.5v815h-20q-25 0 -40 15.5t-15 42.5z" />
<glyph horiz-adv-x="1406" d="M72 930v41q0 57 57 57h18v219q0 47 18.5 88t49.5 72t72 49.5t88 18.5h94q57 0 57 -58v-41q0 -57 -57 -57h-94q-31 0 -53.5 -20.5t-22.5 -51.5v-219h356v219q0 47 18.5 88t49.5 72t72 49.5t88 18.5h94q57 0 57 -58v-41q0 -57 -57 -57h-94q-31 0 -53.5 -20.5t-22.5 -51.5 v-219h285q92 -4 155.5 -66.5t67.5 -154.5v-967q0 -39 -15.5 -73.5t-41 -60t-60.5 -40t-74 -14.5h-94q-27 0 -42 15.5t-15 39.5v43q0 25 15.5 41t41.5 16h94q16 0 27.5 10.5t11.5 26.5v961q-2 29 -24.5 48t-51.5 19h-280v-815q0 -57 -57 -57h-37q-57 0 -58 57v815h-356v-815 q0 -57 -57 -57h-37q-57 0 -58 57v815h-18q-57 0 -57 58z" />
<glyph horiz-adv-x="991" d="M72 930v41q0 57 57 57h18v219q0 47 18.5 88t49.5 72t72 49.5t88 18.5h94q57 0 57 -58v-41q0 -57 -57 -57h-94q-31 0 -53.5 -20.5t-22.5 -51.5v-219h356v207q0 25 15.5 40t42.5 15h37q27 0 42 -15t15 -40v-207h76q57 0 57 -57v-41q0 -57 -57 -58h-76v-815q0 -57 -57 -57 h-37q-57 0 -58 57v815h-356v-815q0 -57 -57 -57h-37q-57 0 -58 57v815h-18q-57 0 -57 58z" />
<glyph horiz-adv-x="1499" d="M72 930v41q0 57 57 57h18v219q0 47 18.5 88t49.5 72t72 49.5t88 18.5h96q25 0 40 -15.5t15 -42.5v-41q0 -27 -15 -42t-40 -15h-96q-31 0 -53.5 -20.5t-22.5 -51.5v-219h356v219q0 47 18.5 88t49.5 72t72 49.5t88 18.5h96q25 0 40 -15.5t15 -42.5v-41q0 -27 -15 -42 t-40 -15h-96q-31 0 -53.5 -20.5t-22.5 -51.5v-219h356v207q0 25 15.5 40t42.5 15h36q27 0 42.5 -15t15.5 -40v-207h76q57 0 57 -57v-41q0 -57 -57 -58h-76v-815q0 -57 -58 -57h-36q-57 0 -58 57v815h-356v-815q0 -57 -57 -57h-37q-57 0 -58 57v815h-356v-815q0 -57 -57 -57 h-37q-57 0 -58 57v815h-18q-57 0 -57 58z" />
<glyph horiz-adv-x="1048" d="M72 930v41q0 57 57 57h76v207q0 25 15.5 40t41.5 15h37q27 0 42 -15t15 -40v-207h357v207q0 25 15 40t42 15h37q27 0 42 -15t15 -40v-207h76q57 0 57 -57v-41q0 -57 -57 -58h-76v-815q0 -57 -57 -57h-37q-57 0 -57 57v815h-357v-815q0 -57 -57 -57h-37q-57 0 -57 57v815 h-76q-57 0 -57 58z" />
</font>
</defs>
</svg>
